<svg width="209" height="117" viewBox="0 0 209 117" fill="none" xmlns="http://www.w3.org/2000/svg">
<path d="M54.48 116.6C44.1333 116.6 35.3867 114.36 28.24 109.88C21.0933 105.293 15.6533 98.8933 11.92 90.68C8.18667 82.36 6.32001 72.6 6.32001 61.4C6.32001 50.2 8.18667 40.4933 11.92 32.28C15.6533 23.96 21.0933 17.5599 28.24 13.0799C35.3867 8.49328 44.1333 6.19995 54.48 6.19995C64.72 6.19995 73.4133 8.49328 80.56 13.0799C87.7067 17.5599 93.1467 23.96 96.88 32.28C100.613 40.4933 102.48 50.2 102.48 61.4C102.48 72.6 100.613 82.36 96.88 90.68C93.1467 98.8933 87.7067 105.293 80.56 109.88C73.4133 114.36 64.72 116.6 54.48 116.6ZM54.48 93.4C59.92 93.4 64.24 92.4933 67.44 90.68C70.7467 88.8666 73.1467 85.6666 74.64 81.08C76.1333 76.3866 76.88 69.8266 76.88 61.4C76.88 52.8666 76.1333 46.3066 74.64 41.7199C73.1467 37.1333 70.7467 33.9333 67.44 32.12C64.24 30.3066 59.92 29.3999 54.48 29.3999C49.04 29.3999 44.6667 30.3066 41.36 32.12C38.0533 33.9333 35.6533 37.1333 34.16 41.7199C32.6667 46.3066 31.92 52.8666 31.92 61.4C31.92 69.8266 32.6667 76.3866 34.16 81.08C35.6533 85.6666 38.0533 88.8666 41.36 90.68C44.6667 92.4933 49.04 93.4 54.48 93.4Z" fill="#F9CE69"/>
<path d="M162.973 116.6C148.573 116.6 137.746 113.72 130.493 107.96C123.239 102.093 119.613 94.2 119.613 84.28V83H143.453V84.28C143.453 86.84 144.146 88.92 145.533 90.52C147.026 92.0133 149.266 93.08 152.253 93.72C155.346 94.36 159.293 94.68 164.092 94.68C171.666 94.68 176.946 93.56 179.932 91.32C183.026 89.08 184.573 85.2399 184.573 79.7999C184.573 74.1466 182.973 70.2533 179.773 68.1199C176.679 65.8799 171.346 64.7599 163.773 64.7599C158.439 64.7599 153.853 65.4 150.013 66.68C146.279 67.96 143.506 69.1333 141.693 70.2L138.333 67.7999L138.493 52.7599H143.773C145.906 50.84 149.266 48.9733 153.853 47.16C158.546 45.3466 164.519 44.4399 171.773 44.4399C179.666 44.4399 186.279 45.88 191.613 48.7599C197.053 51.5333 201.159 55.48 203.932 60.6C206.706 65.72 208.092 71.8533 208.092 79C208.092 86.2533 206.599 92.7066 203.613 98.36C200.626 104.013 195.826 108.493 189.212 111.8C182.599 115 173.853 116.6 162.973 116.6ZM144.893 29.3999L141.693 70.2L120.413 67.32L123.613 7.79995H202.333V29.3999H144.893Z" fill="#F9CE69"/>
<path d="M48.48 110.6C38.1333 110.6 29.3867 108.36 22.24 103.88C15.0933 99.2933 9.65334 92.8933 5.92001 84.68C2.18667 76.36 0.320007 66.6 0.320007 55.4C0.320007 44.2 2.18667 34.4933 5.92001 26.28C9.65334 17.96 15.0933 11.5599 22.24 7.07995C29.3867 2.49328 38.1333 0.199951 48.48 0.199951C58.72 0.199951 67.4133 2.49328 74.56 7.07995C81.7067 11.5599 87.1467 17.96 90.88 26.28C94.6133 34.4933 96.48 44.2 96.48 55.4C96.48 66.6 94.6133 76.36 90.88 84.68C87.1467 92.8933 81.7067 99.2933 74.56 103.88C67.4133 108.36 58.72 110.6 48.48 110.6ZM48.48 87.4C53.92 87.4 58.24 86.4933 61.44 84.68C64.7467 82.8666 67.1467 79.6666 68.64 75.08C70.1333 70.3866 70.88 63.8266 70.88 55.4C70.88 46.8666 70.1333 40.3066 68.64 35.7199C67.1467 31.1333 64.7467 27.9333 61.44 26.12C58.24 24.3066 53.92 23.3999 48.48 23.3999C43.04 23.3999 38.6667 24.3066 35.36 26.12C32.0533 27.9333 29.6533 31.1333 28.16 35.7199C26.6667 40.3066 25.92 46.8666 25.92 55.4C25.92 63.8266 26.6667 70.3866 28.16 75.08C29.6533 79.6666 32.0533 82.8666 35.36 84.68C38.6667 86.4933 43.04 87.4 48.48 87.4Z" fill="#4741A6"/>
<path d="M156.973 110.6C142.573 110.6 131.746 107.72 124.493 101.96C117.239 96.0933 113.613 88.2 113.613 78.28V77H137.453V78.28C137.453 80.84 138.146 82.92 139.533 84.52C141.026 86.0133 143.266 87.08 146.253 87.72C149.346 88.36 153.293 88.68 158.092 88.68C165.666 88.68 170.946 87.56 173.932 85.32C177.026 83.08 178.573 79.2399 178.573 73.7999C178.573 68.1466 176.973 64.2533 173.773 62.1199C170.679 59.8799 165.346 58.7599 157.773 58.7599C152.439 58.7599 147.853 59.4 144.013 60.68C140.279 61.96 137.506 63.1333 135.693 64.2L132.333 61.7999L132.493 46.7599H137.773C139.906 44.84 143.266 42.9733 147.853 41.16C152.546 39.3466 158.519 38.4399 165.773 38.4399C173.666 38.4399 180.279 39.88 185.613 42.7599C191.053 45.5333 195.159 49.48 197.932 54.6C200.706 59.72 202.092 65.8533 202.092 73C202.092 80.2533 200.599 86.7066 197.613 92.36C194.626 98.0133 189.826 102.493 183.212 105.8C176.599 109 167.853 110.6 156.973 110.6ZM138.893 23.3999L135.693 64.2L114.413 61.32L117.613 1.79995H196.333V23.3999H138.893Z" fill="#4741A6"/>
</svg>
