<svg width="213" height="117" viewBox="0 0 213 117" fill="none" xmlns="http://www.w3.org/2000/svg">
<path d="M54.48 116.6C44.1333 116.6 35.3867 114.36 28.24 109.88C21.0933 105.293 15.6533 98.8933 11.92 90.68C8.18667 82.36 6.32001 72.6 6.32001 61.4C6.32001 50.2 8.18667 40.4933 11.92 32.28C15.6533 23.96 21.0933 17.5599 28.24 13.0799C35.3867 8.49328 44.1333 6.19995 54.48 6.19995C64.72 6.19995 73.4133 8.49328 80.56 13.0799C87.7067 17.5599 93.1467 23.96 96.88 32.28C100.613 40.4933 102.48 50.2 102.48 61.4C102.48 72.6 100.613 82.36 96.88 90.68C93.1467 98.8933 87.7067 105.293 80.56 109.88C73.4133 114.36 64.72 116.6 54.48 116.6ZM54.48 93.4C59.92 93.4 64.24 92.4933 67.44 90.68C70.7467 88.8666 73.1467 85.6666 74.64 81.08C76.1333 76.3866 76.88 69.8266 76.88 61.4C76.88 52.8666 76.1333 46.3066 74.64 41.7199C73.1467 37.1333 70.7467 33.9333 67.44 32.12C64.24 30.3066 59.92 29.3999 54.48 29.3999C49.04 29.3999 44.6667 30.3066 41.36 32.12C38.0533 33.9333 35.6533 37.1333 34.16 41.7199C32.6667 46.3066 31.92 52.8666 31.92 61.4C31.92 69.8266 32.6667 76.3866 34.16 81.08C35.6533 85.6666 38.0533 88.8666 41.36 90.68C44.6667 92.4933 49.04 93.4 54.48 93.4Z" fill="#F9CE69"/>
<path d="M212.253 94.68H112.413V77.88L169.053 7.79995H189.533L174.652 36.9199H171.453L142.652 71.4799V73.0799H212.253V94.68ZM196.893 115H172.893V7.79995H196.893V115Z" fill="#F9CE69"/>
<path d="M48.48 110.6C38.1333 110.6 29.3867 108.36 22.24 103.88C15.0933 99.2933 9.65334 92.8933 5.92001 84.68C2.18667 76.36 0.320007 66.6 0.320007 55.4C0.320007 44.2 2.18667 34.4933 5.92001 26.28C9.65334 17.96 15.0933 11.5599 22.24 7.07995C29.3867 2.49328 38.1333 0.199951 48.48 0.199951C58.72 0.199951 67.4133 2.49328 74.56 7.07995C81.7067 11.5599 87.1467 17.96 90.88 26.28C94.6133 34.4933 96.48 44.2 96.48 55.4C96.48 66.6 94.6133 76.36 90.88 84.68C87.1467 92.8933 81.7067 99.2933 74.56 103.88C67.4133 108.36 58.72 110.6 48.48 110.6ZM48.48 87.4C53.92 87.4 58.24 86.4933 61.44 84.68C64.7467 82.8666 67.1467 79.6666 68.64 75.08C70.1333 70.3866 70.88 63.8266 70.88 55.4C70.88 46.8666 70.1333 40.3066 68.64 35.7199C67.1467 31.1333 64.7467 27.9333 61.44 26.12C58.24 24.3066 53.92 23.3999 48.48 23.3999C43.04 23.3999 38.6667 24.3066 35.36 26.12C32.0533 27.9333 29.6533 31.1333 28.16 35.7199C26.6667 40.3066 25.92 46.8666 25.92 55.4C25.92 63.8266 26.6667 70.3866 28.16 75.08C29.6533 79.6666 32.0533 82.8666 35.36 84.68C38.6667 86.4933 43.04 87.4 48.48 87.4Z" fill="#4741A6"/>
<path d="M206.253 88.68H106.413V71.88L163.053 1.79995H183.533L168.652 30.9199H165.453L136.652 65.4799V67.0799H206.253V88.68ZM190.893 109H166.893V1.79995H190.893V109Z" fill="#4741A6"/>
</svg>
