<svg width="204" height="117" viewBox="0 0 204 117" fill="none" xmlns="http://www.w3.org/2000/svg">
<path d="M54.48 116.6C44.1333 116.6 35.3867 114.36 28.24 109.88C21.0933 105.293 15.6533 98.8933 11.92 90.68C8.18667 82.36 6.32 72.6 6.32 61.4C6.32 50.2 8.18667 40.4933 11.92 32.28C15.6533 23.96 21.0933 17.5599 28.24 13.0799C35.3867 8.49328 44.1333 6.19995 54.48 6.19995C64.72 6.19995 73.4133 8.49328 80.56 13.0799C87.7067 17.5599 93.1467 23.96 96.88 32.28C100.613 40.4933 102.48 50.2 102.48 61.4C102.48 72.6 100.613 82.36 96.88 90.68C93.1467 98.8933 87.7067 105.293 80.56 109.88C73.4133 114.36 64.72 116.6 54.48 116.6ZM54.48 93.4C59.92 93.4 64.24 92.4933 67.44 90.68C70.7467 88.8666 73.1467 85.6666 74.64 81.08C76.1333 76.3866 76.88 69.8266 76.88 61.4C76.88 52.8666 76.1333 46.3066 74.64 41.7199C73.1467 37.1333 70.7467 33.9333 67.44 32.12C64.24 30.3066 59.92 29.3999 54.48 29.3999C49.04 29.3999 44.6667 30.3066 41.36 32.12C38.0533 33.9333 35.6533 37.1333 34.16 41.7199C32.6667 46.3066 31.92 52.8666 31.92 61.4C31.92 69.8266 32.6667 76.3866 34.16 81.08C35.6533 85.6666 38.0533 88.8666 41.36 90.68C44.6667 92.4933 49.04 93.4 54.48 93.4Z" fill="#F9CE69"/>
<path d="M202.98 115H119.14V100.6C119.14 93.6666 120.527 87.96 123.3 83.4799C126.073 78.8933 129.647 75.1066 134.02 72.1199C138.5 69.0266 143.193 66.3066 148.1 63.96L166.66 55.16C169.86 53.5599 172.367 52.1199 174.18 50.84C176.1 49.4533 177.433 47.9066 178.18 46.2C179.033 44.4933 179.46 42.4666 179.46 40.1199C179.46 37.56 178.927 35.4266 177.86 33.7199C176.9 31.9066 175.14 30.5199 172.58 29.5599C170.127 28.5999 166.5 28.1199 161.7 28.1199C156.58 28.1199 152.633 28.6533 149.86 29.7199C147.087 30.6799 145.22 32.3333 144.26 34.6799C143.407 37.0266 142.98 40.1199 142.98 43.9599V46.6799H118.98V44.1199C118.98 37.08 120.473 30.7333 123.46 25.0799C126.553 19.3199 131.353 14.7333 137.86 11.32C144.473 7.90662 153.06 6.19995 163.62 6.19995C173.113 6.19995 180.74 7.69328 186.5 10.68C192.367 13.56 196.633 17.56 199.3 22.6799C201.967 27.6933 203.3 33.4533 203.3 39.96C203.3 46.04 202.02 51.2666 199.46 55.64C196.9 59.9066 193.54 63.5333 189.38 66.52C185.327 69.5066 180.953 72.0666 176.26 74.2L160.1 81.24C155.727 83.2666 152.047 85.24 149.06 87.16C146.18 88.9733 144.74 91.16 144.74 93.72L162.02 93.4H202.98V115Z" fill="#F9CE69"/>
<path d="M48.48 110.6C38.1333 110.6 29.3867 108.36 22.24 103.88C15.0933 99.2933 9.65333 92.8933 5.92 84.68C2.18667 76.36 0.32 66.6 0.32 55.4C0.32 44.2 2.18667 34.4933 5.92 26.28C9.65333 17.96 15.0933 11.5599 22.24 7.07995C29.3867 2.49328 38.1333 0.199951 48.48 0.199951C58.72 0.199951 67.4133 2.49328 74.56 7.07995C81.7067 11.5599 87.1467 17.96 90.88 26.28C94.6133 34.4933 96.48 44.2 96.48 55.4C96.48 66.6 94.6133 76.36 90.88 84.68C87.1467 92.8933 81.7067 99.2933 74.56 103.88C67.4133 108.36 58.72 110.6 48.48 110.6ZM48.48 87.4C53.92 87.4 58.24 86.4933 61.44 84.68C64.7467 82.8666 67.1467 79.6666 68.64 75.08C70.1333 70.3866 70.88 63.8266 70.88 55.4C70.88 46.8666 70.1333 40.3066 68.64 35.7199C67.1467 31.1333 64.7467 27.9333 61.44 26.12C58.24 24.3066 53.92 23.3999 48.48 23.3999C43.04 23.3999 38.6667 24.3066 35.36 26.12C32.0533 27.9333 29.6533 31.1333 28.16 35.7199C26.6667 40.3066 25.92 46.8666 25.92 55.4C25.92 63.8266 26.6667 70.3866 28.16 75.08C29.6533 79.6666 32.0533 82.8666 35.36 84.68C38.6667 86.4933 43.04 87.4 48.48 87.4Z" fill="#4741A6"/>
<path d="M196.98 109H113.14V94.6C113.14 87.6666 114.527 81.96 117.3 77.4799C120.073 72.8933 123.647 69.1066 128.02 66.1199C132.5 63.0266 137.193 60.3066 142.1 57.96L160.66 49.16C163.86 47.5599 166.367 46.1199 168.18 44.84C170.1 43.4533 171.433 41.9066 172.18 40.2C173.033 38.4933 173.46 36.4666 173.46 34.1199C173.46 31.56 172.927 29.4266 171.86 27.7199C170.9 25.9066 169.14 24.5199 166.58 23.5599C164.127 22.5999 160.5 22.1199 155.7 22.1199C150.58 22.1199 146.633 22.6533 143.86 23.7199C141.087 24.6799 139.22 26.3333 138.26 28.6799C137.407 31.0266 136.98 34.1199 136.98 37.9599V40.6799H112.98V38.1199C112.98 31.08 114.473 24.7333 117.46 19.0799C120.553 13.3199 125.353 8.73328 131.86 5.31995C138.473 1.90662 147.06 0.199951 157.62 0.199951C167.113 0.199951 174.74 1.69328 180.5 4.67995C186.367 7.55995 190.633 11.56 193.3 16.6799C195.967 21.6933 197.3 27.4533 197.3 33.96C197.3 40.04 196.02 45.2666 193.46 49.64C190.9 53.9066 187.54 57.5333 183.38 60.52C179.327 63.5066 174.953 66.0666 170.26 68.2L154.1 75.24C149.727 77.2666 146.047 79.24 143.06 81.16C140.18 82.9733 138.74 85.16 138.74 87.72L156.02 87.4H196.98V109Z" fill="#4741A6"/>
</svg>
