<svg width="164" height="119" viewBox="0 0 164 119" fill="none" xmlns="http://www.w3.org/2000/svg">
<path d="M56.48 118.6C46.1333 118.6 37.3867 116.36 30.24 111.88C23.0933 107.293 17.6533 100.893 13.92 92.68C10.1867 84.36 8.32001 74.6 8.32001 63.4C8.32001 52.2 10.1867 42.4933 13.92 34.28C17.6533 25.96 23.0933 19.56 30.24 15.08C37.3867 10.4933 46.1333 8.20001 56.48 8.20001C66.72 8.20001 75.4133 10.4933 82.56 15.08C89.7067 19.56 95.1467 25.96 98.88 34.28C102.613 42.4933 104.48 52.2 104.48 63.4C104.48 74.6 102.613 84.36 98.88 92.68C95.1467 100.893 89.7067 107.293 82.56 111.88C75.4133 116.36 66.72 118.6 56.48 118.6ZM56.48 95.4C61.92 95.4 66.24 94.4933 69.44 92.68C72.7467 90.8667 75.1467 87.6667 76.64 83.08C78.1333 78.3867 78.88 71.8267 78.88 63.4C78.88 54.8667 78.1333 48.3067 76.64 43.72C75.1467 39.1333 72.7467 35.9333 69.44 34.12C66.24 32.3067 61.92 31.4 56.48 31.4C51.04 31.4 46.6667 32.3067 43.36 34.12C40.0533 35.9333 37.6533 39.1333 36.16 43.72C34.6667 48.3067 33.92 54.8667 33.92 63.4C33.92 71.8267 34.6667 78.3867 36.16 83.08C37.6533 87.6667 40.0533 90.8667 43.36 92.68C46.6667 94.4933 51.04 95.4 56.48 95.4Z" fill="#F9CE69"/>
<path d="M163.529 117H139.689V40.2H115.529V23.08H120.329C125.342 23.08 129.502 22.0667 132.809 20.04C136.222 18.0133 139.209 14.6 141.769 9.80001H163.529V117Z" fill="#F9CE69"/>
<path d="M48.48 110.6C38.1333 110.6 29.3867 108.36 22.24 103.88C15.0933 99.2933 9.65334 92.8933 5.92001 84.68C2.18667 76.36 0.320007 66.6 0.320007 55.4C0.320007 44.2 2.18667 34.4933 5.92001 26.28C9.65334 17.96 15.0933 11.56 22.24 7.08001C29.3867 2.49334 38.1333 0.200012 48.48 0.200012C58.72 0.200012 67.4133 2.49334 74.56 7.08001C81.7067 11.56 87.1467 17.96 90.88 26.28C94.6133 34.4933 96.48 44.2 96.48 55.4C96.48 66.6 94.6133 76.36 90.88 84.68C87.1467 92.8933 81.7067 99.2933 74.56 103.88C67.4133 108.36 58.72 110.6 48.48 110.6ZM48.48 87.4C53.92 87.4 58.24 86.4933 61.44 84.68C64.7467 82.8667 67.1467 79.6667 68.64 75.08C70.1333 70.3867 70.88 63.8267 70.88 55.4C70.88 46.8667 70.1333 40.3067 68.64 35.72C67.1467 31.1333 64.7467 27.9333 61.44 26.12C58.24 24.3067 53.92 23.4 48.48 23.4C43.04 23.4 38.6667 24.3067 35.36 26.12C32.0533 27.9333 29.6533 31.1333 28.16 35.72C26.6667 40.3067 25.92 46.8667 25.92 55.4C25.92 63.8267 26.6667 70.3867 28.16 75.08C29.6533 79.6667 32.0533 82.8667 35.36 84.68C38.6667 86.4933 43.04 87.4 48.48 87.4Z" fill="#4741A6"/>
<path d="M155.529 109H131.689V32.2H107.529V15.08H112.329C117.342 15.08 121.502 14.0667 124.809 12.04C128.222 10.0133 131.209 6.60001 133.769 1.80001H155.529V109Z" fill="#4741A6"/>
</svg>
