<svg width="203" height="117" viewBox="0 0 203 117" fill="none" xmlns="http://www.w3.org/2000/svg">
<path d="M53.6223 116.728C43.2756 116.728 34.529 114.488 27.3823 110.008C23.735 107.667 20.5322 104.854 17.774 101.569C15.1276 98.4168 12.8903 94.8299 11.0623 90.8082C7.32897 82.4882 5.4623 72.7282 5.4623 61.5282C5.4623 50.3282 7.32897 40.6216 11.0623 32.4082C14.7956 24.0882 20.2356 17.6882 27.3823 13.2082C34.529 8.62158 43.2756 6.32825 53.6223 6.32825C63.8623 6.32825 72.5556 8.62158 79.7023 13.2082C83.3477 15.4934 86.5491 18.2782 89.3064 21.5624C91.9546 24.7169 94.1933 28.3321 96.0223 32.4082C99.7556 40.6216 101.622 50.3282 101.622 61.5282C101.622 72.7282 99.7556 82.4882 96.0223 90.8082C92.289 99.0216 86.849 105.422 79.7023 110.008C72.5556 114.488 63.8623 116.728 53.6223 116.728ZM53.6223 93.5282C59.0623 93.5282 63.3823 92.6216 66.5823 90.8082C69.889 88.9949 72.289 85.7949 73.7823 81.2082C75.2756 76.5149 76.0223 69.9549 76.0223 61.5282C76.0223 52.9949 75.2756 46.4349 73.7823 41.8482C72.9333 39.2405 71.7911 37.081 70.3559 35.3697C69.2668 34.0711 68.009 33.0306 66.5823 32.2482C63.3823 30.4349 59.0623 29.5282 53.6223 29.5282C48.1823 29.5282 43.809 30.4349 40.5023 32.2482C37.1956 34.0616 34.7956 37.2616 33.3023 41.8482C31.809 46.4349 31.0623 52.9949 31.0623 61.5282C31.0623 69.9549 31.809 76.5149 33.3023 81.2082C34.1513 83.816 35.2935 85.9755 36.7287 87.6868C37.8178 88.9854 39.0757 90.0259 40.5023 90.8082C43.809 92.6216 48.1823 93.5282 53.6223 93.5282Z" fill="#F9CE68"/>
<path d="M202.122 115.128H118.282V100.728C118.282 93.7949 119.669 88.0882 122.442 83.6082C125.216 79.0216 128.789 75.2349 133.162 72.2482C137.642 69.1549 142.336 66.4349 147.242 64.0882L165.802 55.2882C169.002 53.6882 171.509 52.2482 173.322 50.9682C175.242 49.5816 176.576 48.0349 177.322 46.3282C178.176 44.6216 178.602 42.5949 178.602 40.2482C178.602 37.6882 178.069 35.5549 177.002 33.8482C176.77 33.4091 176.49 32.995 176.164 32.6059C175.143 31.3883 173.662 30.4158 171.722 29.6882C169.269 28.7282 165.642 28.2482 160.842 28.2482C155.722 28.2482 151.776 28.7816 149.002 29.8482C146.229 30.8082 144.362 32.4616 143.402 34.8082C142.549 37.1549 142.122 40.2482 142.122 44.0882V46.8082H118.122V44.2482C118.122 37.2082 119.616 30.8616 122.602 25.2082C125.696 19.4482 130.496 14.8616 137.002 11.4482C143.616 8.03491 152.202 6.32825 162.762 6.32825C172.256 6.32825 179.882 7.82158 185.642 10.8082C189.625 12.7633 192.87 15.2344 195.378 18.2217C196.564 19.635 197.586 21.1639 198.442 22.8082C201.109 27.8216 202.442 33.5816 202.442 40.0882C202.442 46.1682 201.162 51.3949 198.602 55.7682C196.042 60.0349 192.682 63.6616 188.522 66.6482C184.469 69.6349 180.096 72.1949 175.402 74.3282L159.242 81.3682C154.869 83.3949 151.189 85.3682 148.202 87.2882C145.322 89.1016 143.882 91.2883 143.882 93.8483L161.162 93.5282H202.122V115.128Z" fill="#F9CE68"/>
<path d="M22.24 7.07996C15.0933 11.56 9.65333 17.96 5.92 26.28L11.0623 32.4083C14.7956 24.0883 20.2356 17.6883 27.3823 13.2083L22.24 7.07996Z" fill="#F9CE68"/>
<path d="M48.48 0.199951C38.1333 0.199951 29.3867 2.49328 22.24 7.07995L27.3823 13.2083C34.529 8.62164 43.2756 6.32831 53.6223 6.32831L48.48 0.199951Z" fill="#F9CE68"/>
<path d="M5.92 26.2799C2.18667 34.4932 0.32 44.1999 0.32 55.3999L5.4623 61.5283C5.4623 50.3283 7.32897 40.6216 11.0623 32.4083L5.92 26.2799Z" fill="#F9CE68"/>
<path d="M74.56 7.07995C67.4133 2.49328 58.72 0.199951 48.48 0.199951L53.6223 6.32831C63.8623 6.32831 72.5556 8.62164 79.7023 13.2083L74.56 7.07995Z" fill="#F9CE68"/>
<path d="M28.16 35.72C29.6533 31.1333 32.0533 27.9333 35.36 26.12L40.5023 32.2484C37.1956 34.0617 34.7956 37.2617 33.3023 41.8483L28.16 35.72Z" fill="#F9CE68"/>
<path d="M35.36 26.1199C38.6667 24.3066 43.04 23.3999 48.48 23.3999L53.6223 29.5283C48.1823 29.5283 43.809 30.4349 40.5023 32.2483L35.36 26.1199Z" fill="#F9CE68"/>
<path d="M25.92 55.4C25.92 46.8666 26.6667 40.3066 28.16 35.72L33.3023 41.8483C31.809 46.435 31.0623 52.995 31.0623 61.5283L25.92 55.4Z" fill="#F9CE68"/>
<path d="M48.48 23.3999C53.92 23.3999 58.24 24.3066 61.44 26.1199L66.5823 32.2483C63.3823 30.4349 59.0623 29.5283 53.6223 29.5283L48.48 23.3999Z" fill="#F9CE68"/>
<path d="M0.32 55.3999C0.32 66.5999 2.18667 76.3599 5.92 84.6799L11.0623 90.8083C7.32897 82.4883 5.4623 72.7283 5.4623 61.5283L0.32 55.3999Z" fill="#F9CE68"/>
<path d="M84.164 15.4342C81.4067 12.1499 78.2054 9.36513 74.56 7.07996L79.7023 13.2083C83.3477 15.4935 86.549 18.2782 89.3063 21.5625L84.164 15.4342Z" fill="#F9CE68"/>
<path d="M61.44 26.12C62.8666 26.9023 64.1245 27.9428 65.2136 29.2414L70.3513 35.3642C69.2632 34.0682 68.0069 33.0296 66.5823 32.2484L61.44 26.12Z" fill="#F9CE68"/>
<path d="M28.16 75.0799C26.6667 70.3866 25.92 63.8266 25.92 55.3999L31.0623 61.5283C31.0623 69.9549 31.809 76.5149 33.3023 81.2083L28.16 75.0799Z" fill="#F9CE68"/>
<path d="M65.2136 29.2413C66.6488 30.9526 67.791 33.1121 68.64 35.7199L73.7823 41.8483C72.9333 39.2405 71.7911 37.081 70.3559 35.3697L65.2136 29.2413Z" fill="#F9CE68"/>
<path d="M90.88 26.2799C89.0542 22.2109 86.8202 18.6012 84.178 15.4507L89.3063 21.5624C91.9546 24.7169 94.1933 28.3321 96.0223 32.4082L90.88 26.2799Z" fill="#F9CE68"/>
<path d="M5.92 84.6799C7.74803 88.7016 9.98526 92.2885 12.6317 95.4407L17.7592 101.551C15.1192 98.4035 12.8869 94.8225 11.0623 90.8083L5.92 84.6799Z" fill="#F9CE68"/>
<path d="M31.5864 81.5585C30.1512 79.8473 29.009 77.6877 28.16 75.08L33.3023 81.2083C34.1513 83.8161 35.2935 85.9756 36.7287 87.6869L31.5864 81.5585Z" fill="#F9CE68"/>
<path d="M68.64 35.72C70.1333 40.3066 70.88 46.8666 70.88 55.4L76.0223 61.5283C76.0223 52.995 75.2756 46.435 73.7823 41.8483L68.64 35.72Z" fill="#F9CE68"/>
<path d="M35.36 84.6799C33.9354 83.8987 32.6791 82.86 31.591 81.564L36.7287 87.6868C37.8178 88.9854 39.0757 90.0259 40.5023 90.8082L35.36 84.6799Z" fill="#F9CE68"/>
<path d="M12.6317 95.4407C15.3899 98.7261 18.5927 101.539 22.24 103.88L27.3823 110.008C23.735 107.667 20.5322 104.854 17.774 101.569L12.6317 95.4407Z" fill="#F9CE68"/>
<path d="M131.86 5.31995C125.353 8.73327 120.553 13.3199 117.46 19.0799L122.602 25.2083C125.696 19.4483 130.496 14.8616 137.002 11.4483L131.86 5.31995Z" fill="#F9CE68"/>
<path d="M96.48 55.3999C96.48 44.1999 94.6133 34.4932 90.88 26.2799L96.0223 32.4083C99.7556 40.6216 101.622 50.3283 101.622 61.5283L96.48 55.3999Z" fill="#F9CE68"/>
<path d="M48.48 87.3999C43.04 87.3999 38.6667 86.4933 35.36 84.6799L40.5023 90.8083C43.809 92.6216 48.1823 93.5283 53.6223 93.5283L48.48 87.3999Z" fill="#F9CE68"/>
<path d="M70.88 55.3999C70.88 63.8266 70.1333 70.3866 68.64 75.0799L73.7823 81.2083C75.2756 76.5149 76.0223 69.9549 76.0223 61.5283L70.88 55.3999Z" fill="#F9CE68"/>
<path d="M157.62 0.199951C147.06 0.199951 138.473 1.90662 131.86 5.31995L137.002 11.4483C143.616 8.03497 152.202 6.32831 162.762 6.32831L157.62 0.199951Z" fill="#F9CE68"/>
<path d="M117.46 19.08C114.473 24.7333 112.98 31.08 112.98 38.12L118.122 44.2483C118.122 37.2083 119.616 30.8616 122.602 25.2083L117.46 19.08Z" fill="#F9CE68"/>
<path d="M61.44 84.6799C58.24 86.4933 53.92 87.3999 48.48 87.3999L53.6223 93.5283C59.0623 93.5283 63.3823 92.6216 66.5823 90.8083L61.44 84.6799Z" fill="#F9CE68"/>
<path d="M112.98 38.12V40.68L118.122 46.8084V44.2484L112.98 38.12Z" fill="#F9CE68"/>
<path d="M68.64 75.08C67.1467 79.6666 64.7467 82.8666 61.44 84.68L66.5823 90.8083C69.889 88.995 72.289 85.795 73.7823 81.2083L68.64 75.08Z" fill="#F9CE68"/>
<path d="M22.24 103.88C29.3867 108.36 38.1333 110.6 48.48 110.6L53.6223 116.728C43.2756 116.728 34.529 114.488 27.3823 110.008L22.24 103.88Z" fill="#F9CE68"/>
<path d="M180.5 4.67995C174.74 1.69328 167.113 0.199951 157.62 0.199951L162.762 6.32831C172.256 6.32831 179.882 7.82164 185.642 10.8083L180.5 4.67995Z" fill="#F9CE68"/>
<path d="M138.26 28.68C139.22 26.3333 141.087 24.68 143.86 23.72L149.002 29.8483C146.229 30.8083 144.362 32.4617 143.402 34.8083L138.26 28.68Z" fill="#F9CE68"/>
<path d="M112.98 40.6799H136.98L142.122 46.8083H118.122L112.98 40.6799Z" fill="#F9CE68"/>
<path d="M143.86 23.72C146.633 22.6533 150.58 22.12 155.7 22.12L160.842 28.2484C155.722 28.2484 151.776 28.7817 149.002 29.8483L143.86 23.72Z" fill="#F9CE68"/>
<path d="M90.88 84.6799C94.6133 76.3599 96.48 66.5999 96.48 55.3999L101.622 61.5283C101.622 72.7283 99.7556 82.4883 96.0223 90.8083L90.88 84.6799Z" fill="#F9CE68"/>
<path d="M136.98 37.9599C136.98 34.1199 137.407 31.0266 138.26 28.6799L143.402 34.8083C142.549 37.155 142.122 40.2483 142.122 44.0883L136.98 37.9599Z" fill="#F9CE68"/>
<path d="M136.98 40.68V37.96L142.122 44.0883V46.8083L136.98 40.68Z" fill="#F9CE68"/>
<path d="M155.7 22.12C160.5 22.12 164.127 22.6 166.58 23.56L171.722 29.6884C169.269 28.7284 165.642 28.2484 160.842 28.2484L155.7 22.12Z" fill="#F9CE68"/>
<path d="M48.48 110.6C58.72 110.6 67.4133 108.36 74.56 103.88L79.7023 110.008C72.5556 114.488 63.8623 116.728 53.6223 116.728L48.48 110.6Z" fill="#F9CE68"/>
<path d="M74.56 103.88C81.7067 99.2933 87.1467 92.8933 90.88 84.6799L96.0223 90.8083C92.289 99.0216 86.849 105.422 79.7023 110.008L74.56 103.88Z" fill="#F9CE68"/>
<path d="M190.236 12.0934C187.728 9.10611 184.482 6.63497 180.5 4.67993L185.642 10.8083C189.625 12.7633 192.87 15.2345 195.378 18.2217L190.236 12.0934Z" fill="#F9CE68"/>
<path d="M166.58 23.5599C168.52 24.2874 170.001 25.26 171.022 26.4776L176.162 32.6031C175.141 31.3869 173.661 30.4152 171.722 29.6883L166.58 23.5599Z" fill="#F9CE68"/>
<path d="M171.022 26.4775C171.348 26.8666 171.628 27.2808 171.86 27.7199L177.002 33.8483C176.77 33.4091 176.49 32.995 176.164 32.6059L171.022 26.4775Z" fill="#F9CE68"/>
<path d="M128.02 66.12C123.647 69.1067 120.073 72.8933 117.3 77.48L122.442 83.6084C125.216 79.0217 128.789 75.235 133.162 72.2484L128.02 66.12Z" fill="#F9CE68"/>
<path d="M193.3 16.68C192.446 15.0394 191.427 13.5138 190.244 12.1031L195.378 18.2217C196.564 19.6351 197.586 21.1639 198.442 22.8083L193.3 16.68Z" fill="#F9CE68"/>
<path d="M142.1 57.96C137.193 60.3066 132.5 63.0266 128.02 66.12L133.162 72.2483C137.642 69.155 142.336 66.435 147.242 64.0883L142.1 57.96Z" fill="#F9CE68"/>
<path d="M171.86 27.72C172.927 29.4266 173.46 31.56 173.46 34.12L178.602 40.2483C178.602 37.6883 178.069 35.555 177.002 33.8483L171.86 27.72Z" fill="#F9CE68"/>
<path d="M160.66 49.1599L142.1 57.9599L147.242 64.0883L165.802 55.2883L160.66 49.1599Z" fill="#F9CE68"/>
<path d="M173.46 34.12C173.46 36.4667 173.033 38.4933 172.18 40.2L177.322 46.3284C178.176 44.6217 178.602 42.595 178.602 40.2484L173.46 34.12Z" fill="#F9CE68"/>
<path d="M117.3 77.48C114.527 81.96 113.14 87.6667 113.14 94.6L118.282 100.728C118.282 93.795 119.669 88.0883 122.442 83.6083L117.3 77.48Z" fill="#F9CE68"/>
<path d="M168.18 44.84C166.367 46.12 163.86 47.56 160.66 49.16L165.802 55.2883C169.002 53.6883 171.509 52.2483 173.322 50.9683L168.18 44.84Z" fill="#F9CE68"/>
<path d="M172.18 40.2C171.433 41.9066 170.1 43.4533 168.18 44.84L173.322 50.9683C175.242 49.5816 176.576 48.035 177.322 46.3283L172.18 40.2Z" fill="#F9CE68"/>
<path d="M197.3 33.9599C197.3 27.4533 195.967 21.6933 193.3 16.6799L198.442 22.8083C201.109 27.8216 202.442 33.5816 202.442 40.0883L197.3 33.9599Z" fill="#F9CE68"/>
<path d="M113.14 94.6V109L118.282 115.128V100.728L113.14 94.6Z" fill="#F9CE68"/>
<path d="M138.74 87.7199C138.74 85.1599 140.18 82.9732 143.06 81.1599L148.202 87.2883C145.322 89.1016 143.882 91.2883 143.882 93.8483L138.74 87.7199Z" fill="#F9CE68"/>
<path d="M143.06 81.16C146.047 79.24 149.727 77.2667 154.1 75.24L159.242 81.3683C154.869 83.395 151.189 85.3683 148.202 87.2883L143.06 81.16Z" fill="#F9CE68"/>
<path d="M193.46 49.64C196.02 45.2666 197.3 40.04 197.3 33.96L202.442 40.0883C202.442 46.1683 201.162 51.395 198.602 55.7683L193.46 49.64Z" fill="#F9CE68"/>
<path d="M154.1 75.24L170.26 68.2L175.402 74.3283L159.242 81.3683L154.1 75.24Z" fill="#F9CE68"/>
<path d="M156.02 87.3999L138.74 87.7199L143.882 93.8483L161.162 93.5283L156.02 87.3999Z" fill="#F9CE68"/>
<path d="M170.26 68.1999C174.953 66.0666 179.327 63.5066 183.38 60.5199L188.522 66.6483C184.469 69.6349 180.096 72.1949 175.402 74.3283L170.26 68.1999Z" fill="#F9CE68"/>
<path d="M183.38 60.5199C187.54 57.5332 190.9 53.9066 193.46 49.6399L198.602 55.7682C196.042 60.0349 192.682 63.6616 188.522 66.6482L183.38 60.5199Z" fill="#F9CE68"/>
<path d="M196.98 87.3999H156.02L161.162 93.5283H202.122L196.98 87.3999Z" fill="#F9CE68"/>
<path d="M113.14 109H196.98L202.122 115.128H118.282L113.14 109Z" fill="#F9CE68"/>
<path d="M196.98 109V87.3999L202.122 93.5283V115.128L196.98 109Z" fill="#F9CE68"/>
<path d="M48.48 110.6C38.1333 110.6 29.3867 108.36 22.24 103.88C15.0933 99.2933 9.65333 92.8933 5.92 84.68C2.18667 76.36 0.32 66.6 0.32 55.4C0.32 44.2 2.18667 34.4933 5.92 26.28C9.65333 17.96 15.0933 11.5599 22.24 7.07995C29.3867 2.49328 38.1333 0.199951 48.48 0.199951C58.72 0.199951 67.4133 2.49328 74.56 7.07995C81.7067 11.5599 87.1467 17.96 90.88 26.28C94.6133 34.4933 96.48 44.2 96.48 55.4C96.48 66.6 94.6133 76.36 90.88 84.68C87.1467 92.8933 81.7067 99.2933 74.56 103.88C67.4133 108.36 58.72 110.6 48.48 110.6ZM48.48 87.4C53.92 87.4 58.24 86.4933 61.44 84.68C64.7467 82.8666 67.1467 79.6666 68.64 75.08C70.1333 70.3866 70.88 63.8266 70.88 55.4C70.88 46.8666 70.1333 40.3066 68.64 35.7199C67.1467 31.1333 64.7467 27.9333 61.44 26.12C58.24 24.3066 53.92 23.3999 48.48 23.3999C43.04 23.3999 38.6667 24.3066 35.36 26.12C32.0533 27.9333 29.6533 31.1333 28.16 35.7199C26.6667 40.3066 25.92 46.8666 25.92 55.4C25.92 63.8266 26.6667 70.3866 28.16 75.08C29.6533 79.6666 32.0533 82.8666 35.36 84.68C38.6667 86.4933 43.04 87.4 48.48 87.4Z" fill="#4741A6"/>
<path d="M196.98 109H113.14V94.6C113.14 87.6666 114.527 81.96 117.3 77.4799C120.073 72.8933 123.647 69.1066 128.02 66.1199C132.5 63.0266 137.193 60.3066 142.1 57.96L160.66 49.16C163.86 47.5599 166.367 46.1199 168.18 44.84C170.1 43.4533 171.433 41.9066 172.18 40.2C173.033 38.4933 173.46 36.4666 173.46 34.1199C173.46 31.56 172.927 29.4266 171.86 27.7199C170.9 25.9066 169.14 24.5199 166.58 23.5599C164.127 22.5999 160.5 22.1199 155.7 22.1199C150.58 22.1199 146.633 22.6533 143.86 23.7199C141.087 24.6799 139.22 26.3333 138.26 28.6799C137.407 31.0266 136.98 34.1199 136.98 37.9599V40.6799H112.98V38.1199C112.98 31.08 114.473 24.7333 117.46 19.0799C120.553 13.3199 125.353 8.73328 131.86 5.31995C138.473 1.90662 147.06 0.199951 157.62 0.199951C167.113 0.199951 174.74 1.69328 180.5 4.67995C186.367 7.55995 190.633 11.56 193.3 16.6799C195.967 21.6933 197.3 27.4533 197.3 33.96C197.3 40.04 196.02 45.2666 193.46 49.64C190.9 53.9066 187.54 57.5333 183.38 60.52C179.327 63.5066 174.953 66.0666 170.26 68.2L154.1 75.24C149.727 77.2666 146.047 79.24 143.06 81.16C140.18 82.9733 138.74 85.16 138.74 87.72L156.02 87.4H196.98V109Z" fill="#4741A6"/>
</svg>
