<svg width="161" height="117" viewBox="0 0 161 117" fill="none" xmlns="http://www.w3.org/2000/svg">
<path d="M53.6223 116.728C43.2756 116.728 34.529 114.488 27.3823 110.008C23.735 107.667 20.5322 104.854 17.774 101.569C15.1276 98.4168 12.8903 94.8299 11.0623 90.8082C7.32897 82.4882 5.4623 72.7282 5.4623 61.5282C5.4623 50.3282 7.32897 40.6216 11.0623 32.4082C14.7956 24.0882 20.2356 17.6882 27.3823 13.2082C34.529 8.62158 43.2756 6.32825 53.6223 6.32825C63.8623 6.32825 72.5556 8.62158 79.7023 13.2082C83.3477 15.4934 86.5491 18.2782 89.3064 21.5624C91.9546 24.7169 94.1933 28.3321 96.0223 32.4082C99.7556 40.6216 101.622 50.3282 101.622 61.5282C101.622 72.7282 99.7556 82.4882 96.0223 90.8082C92.289 99.0216 86.849 105.422 79.7023 110.008C72.5556 114.488 63.8623 116.728 53.6223 116.728ZM53.6223 93.5282C59.0623 93.5282 63.3823 92.6216 66.5823 90.8082C69.889 88.9949 72.289 85.7949 73.7823 81.2082C75.2756 76.5149 76.0223 69.9549 76.0223 61.5282C76.0223 52.9949 75.2756 46.4349 73.7823 41.8482C72.9333 39.2405 71.7911 37.081 70.3559 35.3697C69.2668 34.0711 68.009 33.0306 66.5823 32.2482C63.3823 30.4349 59.0623 29.5282 53.6223 29.5282C48.1823 29.5282 43.809 30.4349 40.5023 32.2482C37.1956 34.0616 34.7956 37.2616 33.3023 41.8482C31.809 46.4349 31.0623 52.9949 31.0623 61.5282C31.0623 69.9549 31.809 76.5149 33.3023 81.2082C34.1513 83.816 35.2935 85.9755 36.7287 87.6868C37.8178 88.9854 39.0757 90.0259 40.5023 90.8082C43.809 92.6216 48.1823 93.5282 53.6223 93.5282Z" fill="#FACE68"/>
<path d="M160.671 115.128H136.831V38.3282H112.671V21.2082H117.471C122.484 21.2082 126.644 20.1949 129.951 18.1682C133.364 16.1416 136.351 12.7282 138.911 7.92825H160.671V115.128Z" fill="#FACE68"/>
<path d="M22.24 7.07996C15.0933 11.56 9.65333 17.96 5.92 26.28L11.0623 32.4083C14.7956 24.0883 20.2356 17.6883 27.3823 13.2083L22.24 7.07996Z" fill="#FACE68"/>
<path d="M48.48 0.199951C38.1333 0.199951 29.3867 2.49328 22.24 7.07995L27.3823 13.2083C34.529 8.62164 43.2756 6.32831 53.6223 6.32831L48.48 0.199951Z" fill="#FACE68"/>
<path d="M5.92 26.2799C2.18667 34.4932 0.32 44.1999 0.32 55.3999L5.4623 61.5283C5.4623 50.3283 7.32897 40.6216 11.0623 32.4083L5.92 26.2799Z" fill="#FACE68"/>
<path d="M74.56 7.07995C67.4133 2.49328 58.72 0.199951 48.48 0.199951L53.6223 6.32831C63.8623 6.32831 72.5556 8.62164 79.7023 13.2083L74.56 7.07995Z" fill="#FACE68"/>
<path d="M28.16 35.72C29.6533 31.1333 32.0533 27.9333 35.36 26.12L40.5023 32.2484C37.1956 34.0617 34.7956 37.2617 33.3023 41.8483L28.16 35.72Z" fill="#FACE68"/>
<path d="M35.36 26.1199C38.6667 24.3066 43.04 23.3999 48.48 23.3999L53.6223 29.5283C48.1823 29.5283 43.809 30.4349 40.5023 32.2483L35.36 26.1199Z" fill="#FACE68"/>
<path d="M25.92 55.4C25.92 46.8666 26.6667 40.3066 28.16 35.72L33.3023 41.8483C31.809 46.435 31.0623 52.995 31.0623 61.5283L25.92 55.4Z" fill="#FACE68"/>
<path d="M48.48 23.3999C53.92 23.3999 58.24 24.3066 61.44 26.1199L66.5823 32.2483C63.3823 30.4349 59.0623 29.5283 53.6223 29.5283L48.48 23.3999Z" fill="#FACE68"/>
<path d="M0.32 55.3999C0.32 66.5999 2.18667 76.3599 5.92 84.6799L11.0623 90.8083C7.32897 82.4883 5.4623 72.7283 5.4623 61.5283L0.32 55.3999Z" fill="#FACE68"/>
<path d="M84.164 15.4342C81.4067 12.1499 78.2054 9.36513 74.56 7.07996L79.7023 13.2083C83.3477 15.4935 86.549 18.2782 89.3063 21.5625L84.164 15.4342Z" fill="#FACE68"/>
<path d="M61.44 26.12C62.8666 26.9023 64.1245 27.9428 65.2136 29.2414L70.3513 35.3642C69.2632 34.0682 68.0069 33.0296 66.5823 32.2484L61.44 26.12Z" fill="#FACE68"/>
<path d="M28.16 75.0799C26.6667 70.3866 25.92 63.8266 25.92 55.3999L31.0623 61.5283C31.0623 69.9549 31.809 76.5149 33.3023 81.2083L28.16 75.0799Z" fill="#FACE68"/>
<path d="M65.2136 29.2413C66.6488 30.9526 67.791 33.1121 68.64 35.7199L73.7823 41.8483C72.9333 39.2405 71.7911 37.081 70.3559 35.3697L65.2136 29.2413Z" fill="#FACE68"/>
<path d="M90.88 26.2799C89.0542 22.2109 86.8202 18.6012 84.178 15.4507L89.3063 21.5624C91.9546 24.7169 94.1933 28.3321 96.0223 32.4082L90.88 26.2799Z" fill="#FACE68"/>
<path d="M5.92 84.6799C7.74803 88.7016 9.98526 92.2885 12.6317 95.4407L17.7592 101.551C15.1192 98.4035 12.8869 94.8225 11.0623 90.8083L5.92 84.6799Z" fill="#FACE68"/>
<path d="M31.5864 81.5585C30.1512 79.8473 29.009 77.6877 28.16 75.08L33.3023 81.2083C34.1513 83.8161 35.2935 85.9756 36.7287 87.6869L31.5864 81.5585Z" fill="#FACE68"/>
<path d="M68.64 35.72C70.1333 40.3066 70.88 46.8666 70.88 55.4L76.0223 61.5283C76.0223 52.995 75.2756 46.435 73.7823 41.8483L68.64 35.72Z" fill="#FACE68"/>
<path d="M112.329 15.08H107.529L112.671 21.2083H117.471L112.329 15.08Z" fill="#FACE68"/>
<path d="M35.36 84.6799C33.9354 83.8987 32.6791 82.86 31.591 81.564L36.7287 87.6868C37.8178 88.9854 39.0757 90.0259 40.5023 90.8082L35.36 84.6799Z" fill="#FACE68"/>
<path d="M124.809 12.0399C121.502 14.0666 117.342 15.0799 112.329 15.0799L117.471 21.2083C122.484 21.2083 126.644 20.1949 129.951 18.1683L124.809 12.0399Z" fill="#FACE68"/>
<path d="M107.529 15.08V32.2L112.671 38.3283V21.2083L107.529 15.08Z" fill="#FACE68"/>
<path d="M12.6317 95.4407C15.3899 98.7261 18.5927 101.539 22.24 103.88L27.3823 110.008C23.735 107.667 20.5322 104.854 17.774 101.569L12.6317 95.4407Z" fill="#FACE68"/>
<path d="M133.769 1.79993C131.209 6.59993 128.222 10.0133 124.809 12.0399L129.951 18.1683C133.364 16.1416 136.351 12.7283 138.911 7.92828L133.769 1.79993Z" fill="#FACE68"/>
<path d="M96.48 55.3999C96.48 44.1999 94.6133 34.4932 90.88 26.2799L96.0223 32.4083C99.7556 40.6216 101.622 50.3283 101.622 61.5283L96.48 55.3999Z" fill="#FACE68"/>
<path d="M48.48 87.3999C43.04 87.3999 38.6667 86.4933 35.36 84.6799L40.5023 90.8083C43.809 92.6216 48.1823 93.5283 53.6223 93.5283L48.48 87.3999Z" fill="#FACE68"/>
<path d="M155.529 1.79993H133.769L138.911 7.92828H160.671L155.529 1.79993Z" fill="#FACE68"/>
<path d="M70.88 55.3999C70.88 63.8266 70.1333 70.3866 68.64 75.0799L73.7823 81.2083C75.2756 76.5149 76.0223 69.9549 76.0223 61.5283L70.88 55.3999Z" fill="#FACE68"/>
<path d="M61.44 84.6799C58.24 86.4933 53.92 87.3999 48.48 87.3999L53.6223 93.5283C59.0623 93.5283 63.3823 92.6216 66.5823 90.8083L61.44 84.6799Z" fill="#FACE68"/>
<path d="M107.529 32.2H131.689L136.831 38.3283H112.671L107.529 32.2Z" fill="#FACE68"/>
<path d="M68.64 75.08C67.1467 79.6666 64.7467 82.8666 61.44 84.68L66.5823 90.8083C69.889 88.995 72.289 85.795 73.7823 81.2083L68.64 75.08Z" fill="#FACE68"/>
<path d="M22.24 103.88C29.3867 108.36 38.1333 110.6 48.48 110.6L53.6223 116.728C43.2756 116.728 34.529 114.488 27.3823 110.008L22.24 103.88Z" fill="#FACE68"/>
<path d="M90.88 84.6799C94.6133 76.3599 96.48 66.5999 96.48 55.3999L101.622 61.5283C101.622 72.7283 99.7556 82.4883 96.0223 90.8083L90.88 84.6799Z" fill="#FACE68"/>
<path d="M48.48 110.6C58.72 110.6 67.4133 108.36 74.56 103.88L79.7023 110.008C72.5556 114.488 63.8623 116.728 53.6223 116.728L48.48 110.6Z" fill="#FACE68"/>
<path d="M74.56 103.88C81.7067 99.2933 87.1467 92.8933 90.88 84.6799L96.0223 90.8083C92.289 99.0216 86.849 105.422 79.7023 110.008L74.56 103.88Z" fill="#FACE68"/>
<path d="M131.689 32.2V109L136.831 115.128V38.3283L131.689 32.2Z" fill="#FACE68"/>
<path d="M155.529 109V1.79993L160.671 7.92828V115.128L155.529 109Z" fill="#FACE68"/>
<path d="M131.689 109H155.529L160.671 115.128H136.831L131.689 109Z" fill="#FACE68"/>
<path d="M48.48 110.6C38.1333 110.6 29.3867 108.36 22.24 103.88C15.0933 99.2933 9.65333 92.8933 5.92 84.68C2.18667 76.36 0.32 66.6 0.32 55.4C0.32 44.2 2.18667 34.4933 5.92 26.28C9.65333 17.96 15.0933 11.5599 22.24 7.07995C29.3867 2.49328 38.1333 0.199951 48.48 0.199951C58.72 0.199951 67.4133 2.49328 74.56 7.07995C81.7067 11.5599 87.1467 17.96 90.88 26.28C94.6133 34.4933 96.48 44.2 96.48 55.4C96.48 66.6 94.6133 76.36 90.88 84.68C87.1467 92.8933 81.7067 99.2933 74.56 103.88C67.4133 108.36 58.72 110.6 48.48 110.6ZM48.48 87.4C53.92 87.4 58.24 86.4933 61.44 84.68C64.7467 82.8666 67.1467 79.6666 68.64 75.08C70.1333 70.3866 70.88 63.8266 70.88 55.4C70.88 46.8666 70.1333 40.3066 68.64 35.7199C67.1467 31.1333 64.7467 27.9333 61.44 26.12C58.24 24.3066 53.92 23.3999 48.48 23.3999C43.04 23.3999 38.6667 24.3066 35.36 26.12C32.0533 27.9333 29.6533 31.1333 28.16 35.7199C26.6667 40.3066 25.92 46.8666 25.92 55.4C25.92 63.8266 26.6667 70.3866 28.16 75.08C29.6533 79.6666 32.0533 82.8666 35.36 84.68C38.6667 86.4933 43.04 87.4 48.48 87.4Z" fill="#4741A6"/>
<path d="M155.529 109H131.689V32.1999H107.529V15.08H112.329C117.342 15.08 121.502 14.0666 124.809 12.04C128.222 10.0133 131.209 6.59995 133.769 1.79995H155.529V109Z" fill="#4741A6"/>
</svg>
