<svg width="206" height="117" viewBox="0 0 206 117" fill="none" xmlns="http://www.w3.org/2000/svg">
<path d="M53.6223 116.728C43.2756 116.728 34.529 114.488 27.3823 110.008C23.735 107.667 20.5322 104.854 17.774 101.569C15.1276 98.4168 12.8903 94.8299 11.0623 90.8082C7.32897 82.4882 5.4623 72.7282 5.4623 61.5282C5.4623 50.3282 7.32897 40.6216 11.0623 32.4082C14.7956 24.0882 20.2356 17.6882 27.3823 13.2082C34.529 8.62158 43.2756 6.32825 53.6223 6.32825C63.8623 6.32825 72.5556 8.62158 79.7023 13.2082C83.3477 15.4934 86.549 18.2782 89.3063 21.5624C91.9546 24.7169 94.1933 28.3321 96.0223 32.4082C99.7556 40.6216 101.622 50.3282 101.622 61.5282C101.622 72.7282 99.7556 82.4882 96.0223 90.8082C92.289 99.0216 86.849 105.422 79.7023 110.008C72.5556 114.488 63.8623 116.728 53.6223 116.728ZM53.6223 93.5282C59.0623 93.5282 63.3823 92.6216 66.5823 90.8082C69.889 88.9949 72.289 85.7949 73.7823 81.2082C75.2756 76.5149 76.0223 69.9549 76.0223 61.5282C76.0223 52.9949 75.2756 46.4349 73.7823 41.8482C72.9333 39.2405 71.7911 37.081 70.3559 35.3697C69.2668 34.0711 68.009 33.0306 66.5823 32.2482C63.3823 30.4349 59.0623 29.5282 53.6223 29.5282C48.1823 29.5282 43.809 30.4349 40.5023 32.2482C37.1956 34.0616 34.7956 37.2616 33.3023 41.8482C31.809 46.4349 31.0623 52.9949 31.0623 61.5282C31.0623 69.9549 31.809 76.5149 33.3023 81.2082C34.1513 83.816 35.2935 85.9755 36.7287 87.6868C37.8178 88.9854 39.0757 90.0259 40.5023 90.8082C43.809 92.6216 48.1823 93.5282 53.6223 93.5282Z" fill="#FACE68"/>
<path d="M161.285 116.728C150.511 116.728 141.871 115.342 135.365 112.568C130.507 110.498 126.66 107.773 123.824 104.395C122.861 103.248 122.015 102.026 121.285 100.728C118.405 95.5016 116.965 89.3682 116.965 82.3282V78.8082H140.485V82.0082C140.485 85.3149 141.018 87.8749 142.085 89.6882C142.257 89.9809 142.454 90.2596 142.676 90.5244C143.831 91.9008 145.66 92.9021 148.165 93.5282C151.258 94.2749 155.631 94.6482 161.285 94.6482C167.898 94.6482 172.858 93.8482 176.165 92.2482C179.471 90.6482 181.125 87.3949 181.125 82.4882C181.125 78.203 180.367 75.1573 178.852 73.3511C178.482 72.9093 178.066 72.5417 177.605 72.2482C175.258 70.6482 171.471 69.8482 166.245 69.8482H143.685V50.3282H163.685C168.485 50.3282 171.898 49.6349 173.925 48.2482C175.951 46.8616 176.965 44.0349 176.965 39.7682C176.965 36.8451 176.264 34.5478 174.862 32.8763C174.218 32.1081 173.425 31.4721 172.485 30.9682C169.605 29.2616 165.338 28.4082 159.685 28.4082C154.991 28.4082 151.205 28.7816 148.325 29.5282C145.551 30.2749 143.525 31.5549 142.245 33.3682C141.071 35.1816 140.485 37.7416 140.485 41.0482V42.4882H116.965V40.7282C116.965 33.5816 118.671 27.4482 122.085 22.3282C125.498 17.2082 130.458 13.2616 136.965 10.4882C143.471 7.71491 151.258 6.32825 160.325 6.32825C168.858 6.32825 176.111 7.39491 182.085 9.52824C188.165 11.6616 192.805 14.9149 196.005 19.2882C199.311 23.5549 200.965 28.8882 200.965 35.2882C200.965 41.5816 199.365 46.7549 196.165 50.8082C192.965 54.8616 187.845 57.3149 180.805 58.1682V59.1282C188.485 59.7682 194.511 62.3816 198.885 66.9682C203.258 71.5549 205.445 77.7949 205.445 85.6882C205.445 92.6216 203.631 98.4349 200.005 103.128C196.485 107.715 191.365 111.128 184.645 113.368C178.031 115.608 170.245 116.728 161.285 116.728Z" fill="#FACE68"/>
<path d="M22.24 7.07996C15.0933 11.56 9.65333 17.96 5.92 26.28L11.0623 32.4083C14.7956 24.0883 20.2356 17.6883 27.3823 13.2083L22.24 7.07996Z" fill="#FACE68"/>
<path d="M48.48 0.199951C38.1333 0.199951 29.3867 2.49328 22.24 7.07995L27.3823 13.2083C34.529 8.62164 43.2756 6.32831 53.6223 6.32831L48.48 0.199951Z" fill="#FACE68"/>
<path d="M5.92 26.2799C2.18667 34.4932 0.32 44.1999 0.32 55.3999L5.4623 61.5283C5.4623 50.3283 7.32897 40.6216 11.0623 32.4083L5.92 26.2799Z" fill="#FACE68"/>
<path d="M74.56 7.07995C67.4133 2.49328 58.72 0.199951 48.48 0.199951L53.6223 6.32831C63.8623 6.32831 72.5556 8.62164 79.7023 13.2083L74.56 7.07995Z" fill="#FACE68"/>
<path d="M28.16 35.72C29.6533 31.1333 32.0533 27.9333 35.36 26.12L40.5023 32.2484C37.1956 34.0617 34.7956 37.2617 33.3023 41.8483L28.16 35.72Z" fill="#FACE68"/>
<path d="M35.36 26.1199C38.6667 24.3066 43.04 23.3999 48.48 23.3999L53.6223 29.5283C48.1823 29.5283 43.809 30.4349 40.5023 32.2483L35.36 26.1199Z" fill="#FACE68"/>
<path d="M25.92 55.4C25.92 46.8666 26.6667 40.3066 28.16 35.72L33.3023 41.8483C31.809 46.435 31.0623 52.995 31.0623 61.5283L25.92 55.4Z" fill="#FACE68"/>
<path d="M48.48 23.3999C53.92 23.3999 58.24 24.3066 61.44 26.1199L66.5823 32.2483C63.3823 30.4349 59.0623 29.5283 53.6223 29.5283L48.48 23.3999Z" fill="#FACE68"/>
<path d="M0.32 55.3999C0.32 66.5999 2.18667 76.3599 5.92 84.6799L11.0623 90.8083C7.32897 82.4883 5.4623 72.7283 5.4623 61.5283L0.32 55.3999Z" fill="#FACE68"/>
<path d="M84.164 15.4342C81.4067 12.1499 78.2054 9.36513 74.56 7.07996L79.7023 13.2083C83.3477 15.4935 86.549 18.2782 89.3063 21.5625L84.164 15.4342Z" fill="#FACE68"/>
<path d="M61.44 26.12C62.8666 26.9023 64.1245 27.9428 65.2136 29.2414L70.3513 35.3642C69.2632 34.0682 68.0069 33.0296 66.5823 32.2484L61.44 26.12Z" fill="#FACE68"/>
<path d="M28.16 75.0799C26.6667 70.3866 25.92 63.8266 25.92 55.3999L31.0623 61.5283C31.0623 69.9549 31.809 76.5149 33.3023 81.2083L28.16 75.0799Z" fill="#FACE68"/>
<path d="M65.2136 29.2413C66.6488 30.9526 67.791 33.1121 68.64 35.7199L73.7823 41.8483C72.9333 39.2405 71.7911 37.081 70.3559 35.3697L65.2136 29.2413Z" fill="#FACE68"/>
<path d="M90.88 26.2799C89.0542 22.2109 86.8202 18.6012 84.178 15.4507L89.3063 21.5624C91.9546 24.7169 94.1933 28.3321 96.0223 32.4082L90.88 26.2799Z" fill="#FACE68"/>
<path d="M5.92 84.6799C7.74803 88.7016 9.98526 92.2885 12.6317 95.4407L17.7592 101.551C15.1192 98.4035 12.8869 94.8225 11.0623 90.8083L5.92 84.6799Z" fill="#FACE68"/>
<path d="M31.5864 81.5585C30.1512 79.8473 29.009 77.6877 28.16 75.08L33.3023 81.2083C34.1513 83.8161 35.2935 85.9756 36.7287 87.6869L31.5864 81.5585Z" fill="#FACE68"/>
<path d="M68.64 35.72C70.1333 40.3066 70.88 46.8666 70.88 55.4L76.0223 61.5283C76.0223 52.995 75.2756 46.435 73.7823 41.8483L68.64 35.72Z" fill="#FACE68"/>
<path d="M35.36 84.6799C33.9354 83.8987 32.6791 82.86 31.591 81.564L36.7287 87.6868C37.8178 88.9854 39.0757 90.0259 40.5023 90.8082L35.36 84.6799Z" fill="#FACE68"/>
<path d="M12.6317 95.4407C15.3899 98.7261 18.5927 101.539 22.24 103.88L27.3823 110.008C23.735 107.667 20.5322 104.854 17.774 101.569L12.6317 95.4407Z" fill="#FACE68"/>
<path d="M131.823 4.35999C125.316 7.13332 120.356 11.08 116.942 16.2L122.085 22.3283C125.498 17.2083 130.458 13.2617 136.965 10.4883L131.823 4.35999Z" fill="#FACE68"/>
<path d="M96.48 55.3999C96.48 44.1999 94.6133 34.4932 90.88 26.2799L96.0223 32.4083C99.7556 40.6216 101.622 50.3283 101.622 61.5283L96.48 55.3999Z" fill="#FACE68"/>
<path d="M48.48 87.3999C43.04 87.3999 38.6667 86.4933 35.36 84.6799L40.5023 90.8083C43.809 92.6216 48.1823 93.5283 53.6223 93.5283L48.48 87.3999Z" fill="#FACE68"/>
<path d="M116.942 16.2C113.529 21.32 111.823 27.4533 111.823 34.6L116.965 40.7283C116.965 33.5816 118.671 27.4483 122.085 22.3283L116.942 16.2Z" fill="#FACE68"/>
<path d="M155.183 0.199951C146.116 0.199951 138.329 1.58662 131.823 4.35995L136.965 10.4883C143.471 7.71497 151.258 6.32831 160.325 6.32831L155.183 0.199951Z" fill="#FACE68"/>
<path d="M70.88 55.3999C70.88 63.8266 70.1333 70.3866 68.64 75.0799L73.7823 81.2083C75.2756 76.5149 76.0223 69.9549 76.0223 61.5283L70.88 55.3999Z" fill="#FACE68"/>
<path d="M111.823 34.6V36.36L116.965 42.4883V40.7283L111.823 34.6Z" fill="#FACE68"/>
<path d="M61.44 84.6799C58.24 86.4933 53.92 87.3999 48.48 87.3999L53.6223 93.5283C59.0623 93.5283 63.3823 92.6216 66.5823 90.8083L61.44 84.6799Z" fill="#FACE68"/>
<path d="M68.64 75.08C67.1467 79.6666 64.7467 82.8666 61.44 84.68L66.5823 90.8083C69.889 88.995 72.289 85.795 73.7823 81.2083L68.64 75.08Z" fill="#FACE68"/>
<path d="M22.24 103.88C29.3867 108.36 38.1333 110.6 48.48 110.6L53.6223 116.728C43.2756 116.728 34.529 114.488 27.3823 110.008L22.24 103.88Z" fill="#FACE68"/>
<path d="M111.823 36.36H135.343L140.485 42.4883H116.965L111.823 36.36Z" fill="#FACE68"/>
<path d="M176.943 3.39995C170.969 1.26662 163.716 0.199951 155.183 0.199951L160.325 6.32831C168.858 6.32831 176.111 7.39497 182.085 9.5283L176.943 3.39995Z" fill="#FACE68"/>
<path d="M137.103 27.2399C138.383 25.4266 140.409 24.1466 143.183 23.3999L148.325 29.5283C145.551 30.2749 143.525 31.5549 142.245 33.3683L137.103 27.2399Z" fill="#FACE68"/>
<path d="M135.343 34.92C135.343 31.6133 135.929 29.0533 137.103 27.24L142.245 33.3683C141.071 35.1817 140.485 37.7417 140.485 41.0483L135.343 34.92Z" fill="#FACE68"/>
<path d="M143.183 23.3999C146.063 22.6532 149.849 22.2799 154.543 22.2799L159.685 28.4083C154.991 28.4083 151.205 28.7816 148.325 29.5283L143.183 23.3999Z" fill="#FACE68"/>
<path d="M90.88 84.6799C94.6133 76.3599 96.48 66.5999 96.48 55.3999L101.622 61.5283C101.622 72.7283 99.7556 82.4883 96.0223 90.8083L90.88 84.6799Z" fill="#FACE68"/>
<path d="M135.343 36.3599V34.9199L140.485 41.0483V42.4883L135.343 36.3599Z" fill="#FACE68"/>
<path d="M154.543 22.2799C160.196 22.2799 164.463 23.1332 167.343 24.8399L172.485 30.9683C169.605 29.2616 165.338 28.4083 159.685 28.4083L154.543 22.2799Z" fill="#FACE68"/>
<path d="M48.48 110.6C58.72 110.6 67.4133 108.36 74.56 103.88L79.7023 110.008C72.5556 114.488 63.8623 116.728 53.6223 116.728L48.48 110.6Z" fill="#FACE68"/>
<path d="M176.943 3.3999C183.023 5.53323 187.663 8.78657 190.863 13.1599L193.942 16.8299C194.686 17.6057 195.373 18.4252 196.005 19.2883L193.942 16.8299C190.917 13.6744 186.965 11.2406 182.085 9.52826L176.943 3.3999Z" fill="#FACE68"/>
<path d="M74.56 103.88C81.7067 99.2933 87.1467 92.8933 90.88 84.6799L96.0223 90.8083C92.289 99.0216 86.849 105.422 79.7023 110.008L74.56 103.88Z" fill="#FACE68"/>
<path d="M167.343 24.84C168.283 25.3438 169.075 25.9798 169.72 26.748L174.86 32.8738C174.216 32.1067 173.424 31.4716 172.485 30.9683L167.343 24.84Z" fill="#FACE68"/>
<path d="M111.823 72.6799V76.1999L116.965 82.3283V78.8083L111.823 72.6799Z" fill="#FACE68"/>
<path d="M158.543 44.2H138.543L143.685 50.3283H163.685L158.543 44.2Z" fill="#FACE68"/>
<path d="M138.543 44.2V63.72L143.685 69.8483V50.3283L138.543 44.2Z" fill="#FACE68"/>
<path d="M169.72 26.748C171.122 28.4195 171.823 30.7168 171.823 33.64L176.965 39.7683C176.965 36.8452 176.264 34.5479 174.862 32.8764L169.72 26.748Z" fill="#FACE68"/>
<path d="M135.343 72.6799H111.823L116.965 78.8083H140.485L135.343 72.6799Z" fill="#FACE68"/>
<path d="M168.783 42.12C166.756 43.5067 163.343 44.2 158.543 44.2L163.685 50.3283C168.485 50.3283 171.898 49.635 173.925 48.2484L168.783 42.12Z" fill="#FACE68"/>
<path d="M171.823 33.6399C171.823 37.9066 170.809 40.7332 168.783 42.1199L173.925 48.2482C175.951 46.8616 176.965 44.0349 176.965 39.7682L171.823 33.6399Z" fill="#FACE68"/>
<path d="M111.823 76.2C111.823 83.24 113.263 89.3733 116.143 94.6L121.285 100.728C118.405 95.5016 116.965 89.3683 116.965 82.3283L111.823 76.2Z" fill="#FACE68"/>
<path d="M195.823 29.1599C195.823 22.7599 194.169 17.4266 190.863 13.1599L196.005 19.2883C199.311 23.5549 200.965 28.8883 200.965 35.2883L195.823 29.1599Z" fill="#FACE68"/>
<path d="M135.343 75.8799V72.6799L140.485 78.8083V82.0083L135.343 75.8799Z" fill="#FACE68"/>
<path d="M138.543 63.72H161.103L166.245 69.8483H143.685L138.543 63.72Z" fill="#FACE68"/>
<path d="M136.943 83.56C135.876 81.7467 135.343 79.1867 135.343 75.88L140.485 82.0084C140.485 85.315 141.018 87.875 142.085 89.6884L136.943 83.56Z" fill="#FACE68"/>
<path d="M116.143 94.6C116.872 95.8975 117.719 97.1197 118.682 98.2666L123.816 104.386C122.856 103.241 122.013 102.022 121.285 100.728L116.143 94.6Z" fill="#FACE68"/>
<path d="M137.534 84.3961C137.312 84.1313 137.115 83.8525 136.943 83.5599L142.085 89.6883C142.257 89.9809 142.454 90.2596 142.676 90.5245L137.534 84.3961Z" fill="#FACE68"/>
<path d="M191.023 44.6799C194.223 40.6266 195.823 35.4532 195.823 29.1599L200.965 35.2883C200.965 41.5816 199.365 46.7549 196.165 50.8083L191.023 44.6799Z" fill="#FACE68"/>
<path d="M175.663 52.9999V52.0399L180.805 58.1683V59.1283L175.663 52.9999Z" fill="#FACE68"/>
<path d="M175.663 52.0399C182.703 51.1866 187.823 48.7333 191.023 44.6799L196.165 50.8083C192.965 54.8616 187.845 57.315 180.805 58.1683L175.663 52.0399Z" fill="#FACE68"/>
<path d="M143.023 87.3999C140.519 86.7741 138.69 85.7736 137.536 84.3984L142.676 90.5245C143.831 91.9008 145.66 92.9021 148.165 93.5283L143.023 87.3999Z" fill="#FACE68"/>
<path d="M161.103 63.72C166.329 63.72 170.116 64.52 172.463 66.12L177.605 72.2483C175.258 70.6483 171.471 69.8483 166.245 69.8483L161.103 63.72Z" fill="#FACE68"/>
<path d="M118.682 98.2665C121.518 101.645 125.365 104.369 130.222 106.44L135.365 112.568C130.507 110.498 126.66 107.773 123.824 104.395L118.682 98.2665Z" fill="#FACE68"/>
<path d="M193.743 60.84C189.369 56.2533 183.343 53.64 175.663 53L180.805 59.1284C188.485 59.7684 194.511 62.3817 198.885 66.9684L193.743 60.84Z" fill="#FACE68"/>
<path d="M172.463 66.12C172.924 66.4135 173.34 66.7811 173.71 67.2228L178.851 73.3494C178.481 72.9084 178.065 72.5414 177.605 72.2484L172.463 66.12Z" fill="#FACE68"/>
<path d="M156.143 88.5199C150.489 88.5199 146.116 88.1466 143.023 87.3999L148.165 93.5283C151.258 94.2749 155.632 94.6483 161.285 94.6483L156.143 88.5199Z" fill="#FACE68"/>
<path d="M173.71 67.2228C175.225 69.029 175.983 72.0747 175.983 76.36L181.125 82.4883C181.125 78.2031 180.367 75.1573 178.852 73.3511L173.71 67.2228Z" fill="#FACE68"/>
<path d="M171.023 86.12C167.716 87.72 162.756 88.52 156.143 88.52L161.285 94.6484C167.898 94.6484 172.858 93.8484 176.165 92.2484L171.023 86.12Z" fill="#FACE68"/>
<path d="M175.983 76.36C175.983 81.2667 174.329 84.52 171.023 86.12L176.165 92.2483C179.471 90.6483 181.125 87.395 181.125 82.4883L175.983 76.36Z" fill="#FACE68"/>
<path d="M130.222 106.44C136.729 109.213 145.369 110.6 156.143 110.6L161.285 116.728C150.511 116.728 141.871 115.342 135.365 112.568L130.222 106.44Z" fill="#FACE68"/>
<path d="M193.743 60.84C194.385 61.5133 194.979 62.2223 195.527 62.9668L198.885 66.9683C203.258 71.555 205.445 77.795 205.445 85.6883L200.303 79.56C200.303 72.8254 198.711 67.2943 195.527 62.9668L193.743 60.84Z" fill="#FACE68"/>
<path d="M156.143 110.6C165.103 110.6 172.889 109.48 179.503 107.24L184.645 113.368C178.031 115.608 170.245 116.728 161.285 116.728L156.143 110.6Z" fill="#FACE68"/>
<path d="M194.863 96.9999C198.489 92.3066 200.303 86.4933 200.303 79.5599L205.445 85.6883C205.445 92.6216 203.631 98.435 200.005 103.128L194.863 96.9999Z" fill="#FACE68"/>
<path d="M179.503 107.24C186.223 105 191.343 101.587 194.863 97L200.005 103.128C196.485 107.715 191.365 111.128 184.645 113.368L179.503 107.24Z" fill="#FACE68"/>
<path d="M48.48 110.6C38.1333 110.6 29.3867 108.36 22.24 103.88C15.0933 99.2933 9.65333 92.8933 5.92 84.68C2.18667 76.36 0.32 66.6 0.32 55.4C0.32 44.2 2.18667 34.4933 5.92 26.28C9.65333 17.96 15.0933 11.5599 22.24 7.07995C29.3867 2.49328 38.1333 0.199951 48.48 0.199951C58.72 0.199951 67.4133 2.49328 74.56 7.07995C81.7067 11.5599 87.1467 17.96 90.88 26.28C94.6133 34.4933 96.48 44.2 96.48 55.4C96.48 66.6 94.6133 76.36 90.88 84.68C87.1467 92.8933 81.7067 99.2933 74.56 103.88C67.4133 108.36 58.72 110.6 48.48 110.6ZM48.48 87.4C53.92 87.4 58.24 86.4933 61.44 84.68C64.7467 82.8666 67.1467 79.6666 68.64 75.08C70.1333 70.3866 70.88 63.8266 70.88 55.4C70.88 46.8666 70.1333 40.3066 68.64 35.7199C67.1467 31.1333 64.7467 27.9333 61.44 26.12C58.24 24.3066 53.92 23.3999 48.48 23.3999C43.04 23.3999 38.6667 24.3066 35.36 26.12C32.0533 27.9333 29.6533 31.1333 28.16 35.7199C26.6667 40.3066 25.92 46.8666 25.92 55.4C25.92 63.8266 26.6667 70.3866 28.16 75.08C29.6533 79.6666 32.0533 82.8666 35.36 84.68C38.6667 86.4933 43.04 87.4 48.48 87.4Z" fill="#4741A6"/>
<path d="M156.143 110.6C145.369 110.6 136.729 109.213 130.222 106.44C123.716 103.667 119.023 99.72 116.143 94.6C113.263 89.3733 111.823 83.24 111.823 76.2V72.68H135.342V75.88C135.342 79.1866 135.876 81.7466 136.942 83.56C138.009 85.3733 140.036 86.6533 143.023 87.4C146.116 88.1466 150.489 88.52 156.143 88.52C162.756 88.52 167.716 87.7199 171.023 86.1199C174.329 84.5199 175.983 81.2666 175.983 76.36C175.983 71.0266 174.809 67.6133 172.463 66.1199C170.116 64.5199 166.329 63.7199 161.103 63.7199H138.543V44.2H158.543C163.343 44.2 166.756 43.5066 168.782 42.1199C170.809 40.7333 171.823 37.9066 171.823 33.64C171.823 29.3733 170.329 26.4399 167.342 24.8399C164.462 23.1333 160.196 22.2799 154.543 22.2799C149.849 22.2799 146.062 22.6533 143.182 23.3999C140.409 24.1466 138.383 25.4266 137.103 27.2399C135.929 29.0533 135.342 31.6133 135.342 34.9199V36.3599H111.823V34.5999C111.823 27.4533 113.529 21.3199 116.942 16.1999C120.356 11.0799 125.316 7.13328 131.823 4.35995C138.329 1.58662 146.116 0.199951 155.182 0.199951C163.716 0.199951 170.969 1.26662 176.942 3.39995C183.022 5.53328 187.663 8.78661 190.863 13.1599C194.169 17.4266 195.823 22.7599 195.823 29.1599C195.823 35.4533 194.223 40.6266 191.023 44.68C187.823 48.7333 182.702 51.1866 175.662 52.04V53C183.342 53.64 189.369 56.2533 193.743 60.84C198.116 65.4266 200.303 71.6666 200.303 79.56C200.303 86.4933 198.489 92.3066 194.863 97C191.343 101.587 186.222 105 179.502 107.24C172.889 109.48 165.103 110.6 156.143 110.6Z" fill="#4741A6"/>
</svg>
