<svg width="208" height="117" viewBox="0 0 208 117" fill="none" xmlns="http://www.w3.org/2000/svg">
<path d="M53.6223 116.728C43.2756 116.728 34.529 114.488 27.3823 110.008C23.735 107.667 20.5322 104.854 17.774 101.569C15.1276 98.4168 12.8903 94.8299 11.0623 90.8082C7.32897 82.4882 5.4623 72.7282 5.4623 61.5282C5.4623 50.3282 7.32897 40.6216 11.0623 32.4082C14.7956 24.0882 20.2356 17.6882 27.3823 13.2082C34.529 8.62158 43.2756 6.32825 53.6223 6.32825C63.8623 6.32825 72.5556 8.62158 79.7023 13.2082C83.3477 15.4934 86.549 18.2782 89.3063 21.5624C91.9546 24.7169 94.1933 28.3321 96.0223 32.4082C99.7556 40.6216 101.622 50.3282 101.622 61.5282C101.622 72.7282 99.7556 82.4882 96.0223 90.8082C92.289 99.0216 86.849 105.422 79.7023 110.008C72.5556 114.488 63.8623 116.728 53.6223 116.728ZM53.6223 93.5282C59.0623 93.5282 63.3823 92.6216 66.5823 90.8082C69.889 88.9949 72.289 85.7949 73.7823 81.2082C75.2756 76.5149 76.0223 69.9549 76.0223 61.5282C76.0223 52.9949 75.2756 46.4349 73.7823 41.8482C72.9333 39.2405 71.7911 37.081 70.3559 35.3697C69.2668 34.0711 68.009 33.0306 66.5823 32.2482C63.3823 30.4349 59.0623 29.5282 53.6223 29.5282C48.1823 29.5282 43.809 30.4349 40.5023 32.2482C37.1956 34.0616 34.7956 37.2616 33.3023 41.8482C31.809 46.4349 31.0623 52.9949 31.0623 61.5282C31.0623 69.9549 31.809 76.5149 33.3023 81.2082C34.1513 83.816 35.2935 85.9755 36.7287 87.6868C37.8178 88.9854 39.0757 90.0259 40.5023 90.8082C43.809 92.6216 48.1823 93.5282 53.6223 93.5282Z" fill="#FACE68"/>
<path d="M162.115 116.728C147.715 116.728 136.888 113.848 129.635 108.088C128.05 106.807 126.639 105.428 125.4 103.953C120.97 98.6759 118.755 92.161 118.755 84.4082V83.1283H142.595V84.4082C142.595 86.9682 143.288 89.0482 144.675 90.6482C146.168 92.1416 148.408 93.2083 151.395 93.8483C154.488 94.4883 158.435 94.8083 163.235 94.8083C170.808 94.8083 176.088 93.6882 179.075 91.4482C182.168 89.2082 183.715 85.3682 183.715 79.9282C183.715 75.5712 182.764 72.2595 180.864 69.9933C180.298 69.3191 179.649 68.7374 178.915 68.2482C175.821 66.0082 170.488 64.8882 162.915 64.8882C157.581 64.8882 152.995 65.5282 149.155 66.8082C145.421 68.0882 142.648 69.2616 140.835 70.3282L137.475 67.9282L137.635 52.8882H142.915C145.048 50.9682 148.408 49.1016 152.995 47.2882C157.688 45.4749 163.661 44.5682 170.915 44.5682C178.808 44.5682 185.421 46.0082 190.755 48.8882C194.405 50.7493 197.455 53.1388 199.905 56.0566C201.106 57.4868 202.163 59.0441 203.075 60.7282C205.848 65.8482 207.235 71.9816 207.235 79.1283C207.235 86.3816 205.741 92.8349 202.755 98.4883C199.768 104.142 194.968 108.622 188.355 111.928C181.741 115.128 172.995 116.728 162.115 116.728ZM144.035 29.5282L140.835 70.3282L119.555 67.4482L122.755 7.92825H201.475V29.5282H144.035Z" fill="#FACE68"/>
<path d="M22.24 7.07996C15.0933 11.56 9.65333 17.96 5.92 26.28L11.0623 32.4083C14.7956 24.0883 20.2356 17.6883 27.3823 13.2083L22.24 7.07996Z" fill="#FACE68"/>
<path d="M48.48 0.199951C38.1333 0.199951 29.3867 2.49328 22.24 7.07995L27.3823 13.2083C34.529 8.62164 43.2756 6.32831 53.6223 6.32831L48.48 0.199951Z" fill="#FACE68"/>
<path d="M5.92 26.2799C2.18667 34.4932 0.32 44.1999 0.32 55.3999L5.4623 61.5283C5.4623 50.3283 7.32897 40.6216 11.0623 32.4083L5.92 26.2799Z" fill="#FACE68"/>
<path d="M74.56 7.07995C67.4133 2.49328 58.72 0.199951 48.48 0.199951L53.6223 6.32831C63.8623 6.32831 72.5556 8.62164 79.7023 13.2083L74.56 7.07995Z" fill="#FACE68"/>
<path d="M28.16 35.72C29.6533 31.1333 32.0533 27.9333 35.36 26.12L40.5023 32.2484C37.1956 34.0617 34.7956 37.2617 33.3023 41.8483L28.16 35.72Z" fill="#FACE68"/>
<path d="M35.36 26.1199C38.6667 24.3066 43.04 23.3999 48.48 23.3999L53.6223 29.5283C48.1823 29.5283 43.809 30.4349 40.5023 32.2483L35.36 26.1199Z" fill="#FACE68"/>
<path d="M25.92 55.4C25.92 46.8666 26.6667 40.3066 28.16 35.72L33.3023 41.8483C31.809 46.435 31.0623 52.995 31.0623 61.5283L25.92 55.4Z" fill="#FACE68"/>
<path d="M48.48 23.3999C53.92 23.3999 58.24 24.3066 61.44 26.1199L66.5823 32.2483C63.3823 30.4349 59.0623 29.5283 53.6223 29.5283L48.48 23.3999Z" fill="#FACE68"/>
<path d="M0.32 55.3999C0.32 66.5999 2.18667 76.3599 5.92 84.6799L11.0623 90.8083C7.32897 82.4883 5.4623 72.7283 5.4623 61.5283L0.32 55.3999Z" fill="#FACE68"/>
<path d="M84.164 15.4342C81.4067 12.1499 78.2054 9.36513 74.56 7.07996L79.7023 13.2083C83.3477 15.4935 86.549 18.2782 89.3063 21.5625L84.164 15.4342Z" fill="#FACE68"/>
<path d="M61.44 26.12C62.8666 26.9023 64.1245 27.9428 65.2136 29.2414L70.3513 35.3642C69.2632 34.0682 68.0069 33.0296 66.5823 32.2484L61.44 26.12Z" fill="#FACE68"/>
<path d="M28.16 75.0799C26.6667 70.3866 25.92 63.8266 25.92 55.3999L31.0623 61.5283C31.0623 69.9549 31.809 76.5149 33.3023 81.2083L28.16 75.0799Z" fill="#FACE68"/>
<path d="M65.2136 29.2413C66.6488 30.9526 67.791 33.1121 68.64 35.7199L73.7823 41.8483C72.9333 39.2405 71.7911 37.081 70.3559 35.3697L65.2136 29.2413Z" fill="#FACE68"/>
<path d="M90.88 26.2799C89.0542 22.2109 86.8202 18.6012 84.178 15.4507L89.3063 21.5624C91.9546 24.7169 94.1933 28.3321 96.0223 32.4082L90.88 26.2799Z" fill="#FACE68"/>
<path d="M5.92 84.6799C7.74803 88.7016 9.98526 92.2885 12.6317 95.4407L17.7592 101.551C15.1192 98.4035 12.8869 94.8225 11.0623 90.8083L5.92 84.6799Z" fill="#FACE68"/>
<path d="M31.5864 81.5585C30.1512 79.8473 29.009 77.6877 28.16 75.08L33.3023 81.2083C34.1513 83.8161 35.2935 85.9756 36.7287 87.6869L31.5864 81.5585Z" fill="#FACE68"/>
<path d="M68.64 35.72C70.1333 40.3066 70.88 46.8666 70.88 55.4L76.0223 61.5283C76.0223 52.995 75.2756 46.435 73.7823 41.8483L68.64 35.72Z" fill="#FACE68"/>
<path d="M35.36 84.6799C33.9354 83.8987 32.6791 82.86 31.591 81.564L36.7287 87.6868C37.8178 88.9854 39.0757 90.0259 40.5023 90.8082L35.36 84.6799Z" fill="#FACE68"/>
<path d="M12.6317 95.4407C15.3899 98.7261 18.5927 101.539 22.24 103.88L27.3823 110.008C23.735 107.667 20.5322 104.854 17.774 101.569L12.6317 95.4407Z" fill="#FACE68"/>
<path d="M96.48 55.3999C96.48 44.1999 94.6133 34.4932 90.88 26.2799L96.0223 32.4083C99.7556 40.6216 101.622 50.3283 101.622 61.5283L96.48 55.3999Z" fill="#FACE68"/>
<path d="M48.48 87.3999C43.04 87.3999 38.6667 86.4933 35.36 84.6799L40.5023 90.8083C43.809 92.6216 48.1823 93.5283 53.6223 93.5283L48.48 87.3999Z" fill="#FACE68"/>
<path d="M70.88 55.3999C70.88 63.8266 70.1333 70.3866 68.64 75.0799L73.7823 81.2083C75.2756 76.5149 76.0223 69.9549 76.0223 61.5283L70.88 55.3999Z" fill="#FACE68"/>
<path d="M117.613 1.79993L114.412 61.3199L119.555 67.4483L122.755 7.92828L117.613 1.79993Z" fill="#FACE68"/>
<path d="M61.44 84.6799C58.24 86.4933 53.92 87.3999 48.48 87.3999L53.6223 93.5283C59.0623 93.5283 63.3823 92.6216 66.5823 90.8083L61.44 84.6799Z" fill="#FACE68"/>
<path d="M196.332 1.79993H117.613L122.755 7.92828H201.475L196.332 1.79993Z" fill="#FACE68"/>
<path d="M68.64 75.08C67.1467 79.6666 64.7467 82.8666 61.44 84.68L66.5823 90.8083C69.889 88.995 72.289 85.795 73.7823 81.2083L68.64 75.08Z" fill="#FACE68"/>
<path d="M22.24 103.88C29.3867 108.36 38.1333 110.6 48.48 110.6L53.6223 116.728C43.2756 116.728 34.529 114.488 27.3823 110.008L22.24 103.88Z" fill="#FACE68"/>
<path d="M90.88 84.6799C94.6133 76.3599 96.48 66.5999 96.48 55.3999L101.622 61.5283C101.622 72.7283 99.7556 82.4883 96.0223 90.8083L90.88 84.6799Z" fill="#FACE68"/>
<path d="M48.48 110.6C58.72 110.6 67.4133 108.36 74.56 103.88L79.7023 110.008C72.5556 114.488 63.8623 116.728 53.6223 116.728L48.48 110.6Z" fill="#FACE68"/>
<path d="M135.693 64.1999L138.893 23.3999L144.035 29.5283L140.835 70.3283L135.693 64.1999Z" fill="#FACE68"/>
<path d="M137.772 46.76H132.492L137.635 52.8884H142.915L137.772 46.76Z" fill="#FACE68"/>
<path d="M74.56 103.88C81.7067 99.2933 87.1467 92.8933 90.88 84.6799L96.0223 90.8083C92.289 99.0216 86.849 105.422 79.7023 110.008L74.56 103.88Z" fill="#FACE68"/>
<path d="M147.852 41.1599C143.266 42.9732 139.906 44.8399 137.772 46.7599L142.915 52.8883C145.048 50.9683 148.408 49.1016 152.995 47.2883L147.852 41.1599Z" fill="#FACE68"/>
<path d="M138.893 23.3999H196.333L201.475 29.5283H144.035L138.893 23.3999Z" fill="#FACE68"/>
<path d="M132.492 46.76L132.332 61.8L137.475 67.9284L137.635 52.8884L132.492 46.76Z" fill="#FACE68"/>
<path d="M114.412 61.3199L135.692 64.1999L140.835 70.3283L119.555 67.4483L114.412 61.3199Z" fill="#FACE68"/>
<path d="M165.773 38.4399C158.519 38.4399 152.546 39.3466 147.853 41.1599L152.995 47.2883C157.688 45.475 163.661 44.5683 170.915 44.5683L165.773 38.4399Z" fill="#FACE68"/>
<path d="M113.613 77V78.28L118.755 84.4084V83.1284L113.613 77Z" fill="#FACE68"/>
<path d="M132.332 61.7999L135.692 64.1999L140.835 70.3283L137.475 67.9283L132.332 61.7999Z" fill="#FACE68"/>
<path d="M196.332 23.3999V1.79993L201.475 7.92828V29.5283L196.332 23.3999Z" fill="#FACE68"/>
<path d="M135.693 64.1999C137.506 63.1333 140.279 61.9599 144.013 60.6799L149.155 66.8083C145.421 68.0883 142.648 69.2616 140.835 70.3283L135.693 64.1999Z" fill="#FACE68"/>
<path d="M137.453 77H113.613L118.755 83.1284H142.595L137.453 77Z" fill="#FACE68"/>
<path d="M113.613 78.2799C113.613 86.0327 115.828 92.5476 120.258 97.8246L125.391 103.942C120.967 98.6668 118.755 92.1556 118.755 84.4083L113.613 78.2799Z" fill="#FACE68"/>
<path d="M144.013 60.68C147.853 59.4 152.439 58.76 157.773 58.76L162.915 64.8884C157.581 64.8884 152.995 65.5284 149.155 66.8084L144.013 60.68Z" fill="#FACE68"/>
<path d="M185.612 42.7599C180.279 39.8799 173.666 38.4399 165.772 38.4399L170.915 44.5683C178.808 44.5683 185.421 46.0083 190.755 48.8883L185.612 42.7599Z" fill="#FACE68"/>
<path d="M137.453 78.28V77L142.595 83.1284V84.4084L137.453 78.28Z" fill="#FACE68"/>
<path d="M139.533 84.5199C138.146 82.9199 137.453 80.8399 137.453 78.2799L142.595 84.4083C142.595 86.8652 143.233 88.8801 144.511 90.4528L144.675 90.6483C144.619 90.5839 144.564 90.5187 144.511 90.4528L139.533 84.5199Z" fill="#FACE68"/>
<path d="M157.772 58.76C165.346 58.76 170.679 59.88 173.772 62.12L178.915 68.2484C175.821 66.0084 170.488 64.8884 162.915 64.8884L157.772 58.76Z" fill="#FACE68"/>
<path d="M120.258 97.8247C121.496 99.2999 122.908 100.678 124.493 101.96L129.635 108.088C128.05 106.807 126.639 105.428 125.4 103.953L120.258 97.8247Z" fill="#FACE68"/>
<path d="M194.763 49.9283C192.313 47.0105 189.263 44.6211 185.612 42.76L190.755 48.8884C194.405 50.7494 197.455 53.1389 199.905 56.0567L194.763 49.9283Z" fill="#FACE68"/>
<path d="M146.253 87.7199C143.266 87.0799 141.026 86.0132 139.533 84.5199L144.675 90.6483C146.168 92.1416 148.408 93.2083 151.395 93.8483L146.253 87.7199Z" fill="#FACE68"/>
<path d="M173.772 62.12C174.506 62.6091 175.156 63.1908 175.721 63.865L180.861 69.9904C180.296 69.3175 179.647 68.7368 178.915 68.2484L173.772 62.12Z" fill="#FACE68"/>
<path d="M158.093 88.68C153.293 88.68 149.346 88.36 146.253 87.72L151.395 93.8483C154.488 94.4883 158.435 94.8083 163.235 94.8083L158.093 88.68Z" fill="#FACE68"/>
<path d="M197.933 54.6C197.023 52.9203 195.969 51.3669 194.773 49.9398L199.905 56.0567C201.106 57.487 202.163 59.0442 203.075 60.7284L197.933 54.6Z" fill="#FACE68"/>
<path d="M175.721 63.865C177.622 66.1312 178.573 69.4429 178.573 73.8L183.715 79.9283C183.715 75.5712 182.764 72.2596 180.864 69.9933L175.721 63.865Z" fill="#FACE68"/>
<path d="M124.492 101.96C131.746 107.72 142.572 110.6 156.972 110.6L162.115 116.728C147.715 116.728 136.888 113.848 129.635 108.088L124.492 101.96Z" fill="#FACE68"/>
<path d="M173.932 85.3199C170.946 87.5599 165.666 88.6799 158.092 88.6799L163.235 94.8083C170.808 94.8083 176.088 93.6883 179.075 91.4483L173.932 85.3199Z" fill="#FACE68"/>
<path d="M178.572 73.7999C178.572 79.2399 177.026 83.0799 173.932 85.3199L179.075 91.4483C182.168 89.2083 183.715 85.3683 183.715 79.9283L178.572 73.7999Z" fill="#FACE68"/>
<path d="M202.092 73C202.092 65.8533 200.706 59.72 197.932 54.6L203.075 60.7283C205.848 65.8483 207.235 71.9817 207.235 79.1283L202.092 73Z" fill="#FACE68"/>
<path d="M197.613 92.36C200.599 86.7067 202.093 80.2533 202.093 73L207.235 79.1284C207.235 86.3817 205.741 92.835 202.755 98.4884L197.613 92.36Z" fill="#FACE68"/>
<path d="M156.973 110.6C167.853 110.6 176.599 109 183.213 105.8L188.355 111.928C181.741 115.128 172.995 116.728 162.115 116.728L156.973 110.6Z" fill="#FACE68"/>
<path d="M183.212 105.8C189.826 102.493 194.626 98.0133 197.613 92.36L202.755 98.4883C199.768 104.142 194.968 108.622 188.355 111.928L183.212 105.8Z" fill="#FACE68"/>
<path d="M48.48 110.6C38.1333 110.6 29.3867 108.36 22.24 103.88C15.0933 99.2933 9.65333 92.8933 5.92 84.68C2.18667 76.36 0.32 66.6 0.32 55.4C0.32 44.2 2.18667 34.4933 5.92 26.28C9.65333 17.96 15.0933 11.5599 22.24 7.07995C29.3867 2.49328 38.1333 0.199951 48.48 0.199951C58.72 0.199951 67.4133 2.49328 74.56 7.07995C81.7067 11.5599 87.1467 17.96 90.88 26.28C94.6133 34.4933 96.48 44.2 96.48 55.4C96.48 66.6 94.6133 76.36 90.88 84.68C87.1467 92.8933 81.7067 99.2933 74.56 103.88C67.4133 108.36 58.72 110.6 48.48 110.6ZM48.48 87.4C53.92 87.4 58.24 86.4933 61.44 84.68C64.7467 82.8666 67.1467 79.6666 68.64 75.08C70.1333 70.3866 70.88 63.8266 70.88 55.4C70.88 46.8666 70.1333 40.3066 68.64 35.7199C67.1467 31.1333 64.7467 27.9333 61.44 26.12C58.24 24.3066 53.92 23.3999 48.48 23.3999C43.04 23.3999 38.6667 24.3066 35.36 26.12C32.0533 27.9333 29.6533 31.1333 28.16 35.7199C26.6667 40.3066 25.92 46.8666 25.92 55.4C25.92 63.8266 26.6667 70.3866 28.16 75.08C29.6533 79.6666 32.0533 82.8666 35.36 84.68C38.6667 86.4933 43.04 87.4 48.48 87.4Z" fill="#4741A6"/>
<path d="M156.972 110.6C142.572 110.6 131.746 107.72 124.493 101.96C117.239 96.0933 113.613 88.2 113.613 78.28V77H137.453V78.28C137.453 80.84 138.146 82.92 139.532 84.52C141.026 86.0133 143.266 87.08 146.252 87.72C149.346 88.36 153.292 88.68 158.092 88.68C165.666 88.68 170.946 87.56 173.932 85.32C177.026 83.08 178.573 79.2399 178.573 73.7999C178.573 68.1466 176.973 64.2533 173.773 62.1199C170.679 59.8799 165.346 58.7599 157.773 58.7599C152.439 58.7599 147.853 59.4 144.013 60.68C140.279 61.96 137.506 63.1333 135.692 64.2L132.333 61.7999L132.493 46.7599H137.773C139.906 44.84 143.266 42.9733 147.853 41.16C152.546 39.3466 158.519 38.4399 165.773 38.4399C173.666 38.4399 180.279 39.88 185.613 42.7599C191.053 45.5333 195.159 49.48 197.932 54.6C200.706 59.72 202.092 65.8533 202.092 73C202.092 80.2533 200.599 86.7066 197.613 92.36C194.626 98.0133 189.826 102.493 183.212 105.8C176.599 109 167.852 110.6 156.972 110.6ZM138.893 23.3999L135.692 64.2L114.412 61.32L117.613 1.79995H196.333V23.3999H138.893Z" fill="#4741A6"/>
</svg>
