<svg width="207" height="117" viewBox="0 0 207 117" fill="none" xmlns="http://www.w3.org/2000/svg">
<path d="M54.48 116.6C44.1333 116.6 35.3867 114.36 28.24 109.88C21.0933 105.293 15.6533 98.8933 11.92 90.68C8.18667 82.36 6.32001 72.6 6.32001 61.4C6.32001 50.2 8.18667 40.4933 11.92 32.28C15.6533 23.96 21.0933 17.5599 28.24 13.0799C35.3867 8.49328 44.1333 6.19995 54.48 6.19995C64.72 6.19995 73.4133 8.49328 80.56 13.0799C87.7067 17.5599 93.1467 23.96 96.88 32.28C100.613 40.4933 102.48 50.2 102.48 61.4C102.48 72.6 100.613 82.36 96.88 90.68C93.1467 98.8933 87.7067 105.293 80.56 109.88C73.4133 114.36 64.72 116.6 54.48 116.6ZM54.48 93.4C59.92 93.4 64.24 92.4933 67.44 90.68C70.7467 88.8666 73.1467 85.6666 74.64 81.08C76.1333 76.3866 76.88 69.8266 76.88 61.4C76.88 52.8666 76.1333 46.3066 74.64 41.7199C73.1467 37.1333 70.7467 33.9333 67.44 32.12C64.24 30.3066 59.92 29.3999 54.48 29.3999C49.04 29.3999 44.6667 30.3066 41.36 32.12C38.0533 33.9333 35.6533 37.1333 34.16 41.7199C32.6667 46.3066 31.92 52.8666 31.92 61.4C31.92 69.8266 32.6667 76.3866 34.16 81.08C35.6533 85.6666 38.0533 88.8666 41.36 90.68C44.6667 92.4933 49.04 93.4 54.48 93.4Z" fill="#F9CE69"/>
<path d="M162.143 116.6C151.369 116.6 142.729 115.213 136.223 112.44C129.716 109.667 125.023 105.72 122.143 100.6C119.263 95.3733 117.823 89.24 117.823 82.2V78.68H141.342V81.88C141.342 85.1866 141.876 87.7466 142.943 89.56C144.009 91.3733 146.036 92.6533 149.023 93.4C152.116 94.1466 156.489 94.52 162.143 94.52C168.756 94.52 173.716 93.7199 177.023 92.1199C180.329 90.5199 181.983 87.2666 181.983 82.36C181.983 77.0266 180.809 73.6133 178.463 72.1199C176.116 70.5199 172.329 69.7199 167.103 69.7199H144.543V50.2H164.543C169.343 50.2 172.756 49.5066 174.783 48.1199C176.809 46.7333 177.823 43.9066 177.823 39.64C177.823 35.3733 176.329 32.4399 173.342 30.8399C170.462 29.1333 166.196 28.2799 160.543 28.2799C155.849 28.2799 152.062 28.6533 149.182 29.3999C146.409 30.1466 144.383 31.4266 143.103 33.2399C141.929 35.0533 141.342 37.6133 141.342 40.9199V42.3599H117.823V40.5999C117.823 33.4533 119.529 27.3199 122.943 22.1999C126.356 17.0799 131.316 13.1333 137.823 10.3599C144.329 7.58662 152.116 6.19995 161.182 6.19995C169.716 6.19995 176.969 7.26662 182.943 9.39995C189.023 11.5333 193.663 14.7866 196.863 19.1599C200.169 23.4266 201.823 28.7599 201.823 35.1599C201.823 41.4533 200.223 46.6266 197.023 50.68C193.823 54.7333 188.703 57.1866 181.663 58.04V59C189.343 59.64 195.369 62.2533 199.743 66.84C204.116 71.4266 206.303 77.6666 206.303 85.56C206.303 92.4933 204.489 98.3066 200.863 103C197.343 107.587 192.223 111 185.503 113.24C178.889 115.48 171.103 116.6 162.143 116.6Z" fill="#F9CE69"/>
<path d="M48.48 110.6C38.1333 110.6 29.3867 108.36 22.24 103.88C15.0933 99.2933 9.65334 92.8933 5.92001 84.68C2.18667 76.36 0.320007 66.6 0.320007 55.4C0.320007 44.2 2.18667 34.4933 5.92001 26.28C9.65334 17.96 15.0933 11.5599 22.24 7.07995C29.3867 2.49328 38.1333 0.199951 48.48 0.199951C58.72 0.199951 67.4133 2.49328 74.56 7.07995C81.7067 11.5599 87.1467 17.96 90.88 26.28C94.6133 34.4933 96.48 44.2 96.48 55.4C96.48 66.6 94.6133 76.36 90.88 84.68C87.1467 92.8933 81.7067 99.2933 74.56 103.88C67.4133 108.36 58.72 110.6 48.48 110.6ZM48.48 87.4C53.92 87.4 58.24 86.4933 61.44 84.68C64.7467 82.8666 67.1467 79.6666 68.64 75.08C70.1333 70.3866 70.88 63.8266 70.88 55.4C70.88 46.8666 70.1333 40.3066 68.64 35.7199C67.1467 31.1333 64.7467 27.9333 61.44 26.12C58.24 24.3066 53.92 23.3999 48.48 23.3999C43.04 23.3999 38.6667 24.3066 35.36 26.12C32.0533 27.9333 29.6533 31.1333 28.16 35.7199C26.6667 40.3066 25.92 46.8666 25.92 55.4C25.92 63.8266 26.6667 70.3866 28.16 75.08C29.6533 79.6666 32.0533 82.8666 35.36 84.68C38.6667 86.4933 43.04 87.4 48.48 87.4Z" fill="#4741A6"/>
<path d="M156.143 110.6C145.369 110.6 136.729 109.213 130.223 106.44C123.716 103.667 119.023 99.72 116.143 94.6C113.263 89.3733 111.823 83.24 111.823 76.2V72.68H135.342V75.88C135.342 79.1866 135.876 81.7466 136.943 83.56C138.009 85.3733 140.036 86.6533 143.023 87.4C146.116 88.1466 150.489 88.52 156.143 88.52C162.756 88.52 167.716 87.7199 171.023 86.1199C174.329 84.5199 175.983 81.2666 175.983 76.36C175.983 71.0266 174.809 67.6133 172.463 66.1199C170.116 64.5199 166.329 63.7199 161.103 63.7199H138.543V44.2H158.543C163.343 44.2 166.756 43.5066 168.783 42.1199C170.809 40.7333 171.823 37.9066 171.823 33.64C171.823 29.3733 170.329 26.4399 167.342 24.8399C164.462 23.1333 160.196 22.2799 154.543 22.2799C149.849 22.2799 146.062 22.6533 143.182 23.3999C140.409 24.1466 138.383 25.4266 137.103 27.2399C135.929 29.0533 135.342 31.6133 135.342 34.9199V36.3599H111.823V34.5999C111.823 27.4533 113.529 21.3199 116.943 16.1999C120.356 11.0799 125.316 7.13328 131.823 4.35995C138.329 1.58662 146.116 0.199951 155.182 0.199951C163.716 0.199951 170.969 1.26662 176.943 3.39995C183.023 5.53328 187.663 8.78661 190.863 13.1599C194.169 17.4266 195.823 22.7599 195.823 29.1599C195.823 35.4533 194.223 40.6266 191.023 44.68C187.823 48.7333 182.703 51.1866 175.663 52.04V53C183.343 53.64 189.369 56.2533 193.743 60.84C198.116 65.4266 200.303 71.6666 200.303 79.56C200.303 86.4933 198.489 92.3066 194.863 97C191.343 101.587 186.223 105 179.503 107.24C172.889 109.48 165.103 110.6 156.143 110.6Z" fill="#4741A6"/>
</svg>
